M48
;Layer_Color=9474304
;FILE_FORMAT=4:4
METRIC,LZ
;TYPE=PLATED
T01F00S00C0.7000
T02F00S00C1.0000
T03F00S00C1.0500
T04F00S00C3.1000
%
T01
X00366Y0038225
X00386
X00406
X00426
X00446
X00466
T02
X00041Y00106
Y00131
Y00156
Y00181
X00137Y00049
X00162Y00049
X00162Y00024
X00137
X00187
Y00049
X00212Y00049
X00237
X00262
X00262Y00024
X00237
X00212
X0021875Y0011625
X0024375Y0011625
X0026875Y0011625
X0029375
X0031875
X0034375
X0036875Y0011625
X00362Y00049
X00337
Y00024
X00312
X00287
Y00049
X00312Y00049
X00362Y00024
X00387
X00412
X00437
Y00049
X00412Y00049
X00387
X00462
X00487
X00487Y00024
X00512
X00537Y00024
X00537Y00049
X00562
X00587Y00049
X00587Y00024
X00562
X00612
X00612Y00049
X00512Y00049
X00462Y00024
X003885Y00196
Y00221
Y00246
Y00271
T03
X00105Y00392
X0013
T04
X0003Y0003
X0066
Y0039
X0003
M30
