G04*
G04 #@! TF.GenerationSoftware,Altium Limited,Altium Designer,24.1.2 (44)*
G04*
G04 Layer_Physical_Order=1*
G04 Layer_Color=8420607*
%FSLAX44Y44*%
%MOMM*%
G71*
G04*
G04 #@! TF.SameCoordinates,47F7E096-FCAE-4DA0-9534-1F3D085AFBD9*
G04*
G04*
G04 #@! TF.FilePolarity,Positive*
G04*
G01*
G75*
G04:AMPARAMS|DCode=10|XSize=1mm|YSize=1.8mm|CornerRadius=0.25mm|HoleSize=0mm|Usage=FLASHONLY|Rotation=180.000|XOffset=0mm|YOffset=0mm|HoleType=Round|Shape=RoundedRectangle|*
%AMROUNDEDRECTD10*
21,1,1.0000,1.3000,0,0,180.0*
21,1,0.5000,1.8000,0,0,180.0*
1,1,0.5000,-0.2500,0.6500*
1,1,0.5000,0.2500,0.6500*
1,1,0.5000,0.2500,-0.6500*
1,1,0.5000,-0.2500,-0.6500*
%
%ADD10ROUNDEDRECTD10*%
G04:AMPARAMS|DCode=11|XSize=0.95mm|YSize=0.9mm|CornerRadius=0.225mm|HoleSize=0mm|Usage=FLASHONLY|Rotation=90.000|XOffset=0mm|YOffset=0mm|HoleType=Round|Shape=RoundedRectangle|*
%AMROUNDEDRECTD11*
21,1,0.9500,0.4500,0,0,90.0*
21,1,0.5000,0.9000,0,0,90.0*
1,1,0.4500,0.2250,0.2500*
1,1,0.4500,0.2250,-0.2500*
1,1,0.4500,-0.2250,-0.2500*
1,1,0.4500,-0.2250,0.2500*
%
%ADD11ROUNDEDRECTD11*%
G04:AMPARAMS|DCode=12|XSize=0.95mm|YSize=0.9mm|CornerRadius=0.225mm|HoleSize=0mm|Usage=FLASHONLY|Rotation=0.000|XOffset=0mm|YOffset=0mm|HoleType=Round|Shape=RoundedRectangle|*
%AMROUNDEDRECTD12*
21,1,0.9500,0.4500,0,0,0.0*
21,1,0.5000,0.9000,0,0,0.0*
1,1,0.4500,0.2500,-0.2250*
1,1,0.4500,-0.2500,-0.2250*
1,1,0.4500,-0.2500,0.2250*
1,1,0.4500,0.2500,0.2250*
%
%ADD12ROUNDEDRECTD12*%
G04:AMPARAMS|DCode=13|XSize=0.95mm|YSize=1mm|CornerRadius=0.2375mm|HoleSize=0mm|Usage=FLASHONLY|Rotation=90.000|XOffset=0mm|YOffset=0mm|HoleType=Round|Shape=RoundedRectangle|*
%AMROUNDEDRECTD13*
21,1,0.9500,0.5250,0,0,90.0*
21,1,0.4750,1.0000,0,0,90.0*
1,1,0.4750,0.2625,0.2375*
1,1,0.4750,0.2625,-0.2375*
1,1,0.4750,-0.2625,-0.2375*
1,1,0.4750,-0.2625,0.2375*
%
%ADD13ROUNDEDRECTD13*%
G04:AMPARAMS|DCode=14|XSize=2mm|YSize=2.4mm|CornerRadius=0.5mm|HoleSize=0mm|Usage=FLASHONLY|Rotation=270.000|XOffset=0mm|YOffset=0mm|HoleType=Round|Shape=RoundedRectangle|*
%AMROUNDEDRECTD14*
21,1,2.0000,1.4000,0,0,270.0*
21,1,1.0000,2.4000,0,0,270.0*
1,1,1.0000,-0.7000,-0.5000*
1,1,1.0000,-0.7000,0.5000*
1,1,1.0000,0.7000,0.5000*
1,1,1.0000,0.7000,-0.5000*
%
%ADD14ROUNDEDRECTD14*%
%ADD15O,0.6000X1.5500*%
G04:AMPARAMS|DCode=16|XSize=1.75mm|YSize=1.4mm|CornerRadius=0.35mm|HoleSize=0mm|Usage=FLASHONLY|Rotation=270.000|XOffset=0mm|YOffset=0mm|HoleType=Round|Shape=RoundedRectangle|*
%AMROUNDEDRECTD16*
21,1,1.7500,0.7000,0,0,270.0*
21,1,1.0500,1.4000,0,0,270.0*
1,1,0.7000,-0.3500,-0.5250*
1,1,0.7000,-0.3500,0.5250*
1,1,0.7000,0.3500,0.5250*
1,1,0.7000,0.3500,-0.5250*
%
%ADD16ROUNDEDRECTD16*%
%ADD17O,0.4000X1.4000*%
G04:AMPARAMS|DCode=18|XSize=4.6mm|YSize=2.5mm|CornerRadius=0.625mm|HoleSize=0mm|Usage=FLASHONLY|Rotation=270.000|XOffset=0mm|YOffset=0mm|HoleType=Round|Shape=RoundedRectangle|*
%AMROUNDEDRECTD18*
21,1,4.6000,1.2500,0,0,270.0*
21,1,3.3500,2.5000,0,0,270.0*
1,1,1.2500,-0.6250,-1.6750*
1,1,1.2500,-0.6250,1.6750*
1,1,1.2500,0.6250,1.6750*
1,1,1.2500,0.6250,-1.6750*
%
%ADD18ROUNDEDRECTD18*%
G04:AMPARAMS|DCode=19|XSize=1.75mm|YSize=1.4mm|CornerRadius=0.35mm|HoleSize=0mm|Usage=FLASHONLY|Rotation=180.000|XOffset=0mm|YOffset=0mm|HoleType=Round|Shape=RoundedRectangle|*
%AMROUNDEDRECTD19*
21,1,1.7500,0.7000,0,0,180.0*
21,1,1.0500,1.4000,0,0,180.0*
1,1,0.7000,-0.5250,0.3500*
1,1,0.7000,0.5250,0.3500*
1,1,0.7000,0.5250,-0.3500*
1,1,0.7000,-0.5250,-0.3500*
%
%ADD19ROUNDEDRECTD19*%
%ADD20O,1.2000X0.3000*%
%ADD21O,0.3000X1.2000*%
%ADD22C,0.4000*%
%ADD23C,0.3000*%
%ADD24C,1.0000*%
%ADD25C,5.5000*%
%ADD26C,1.5080*%
%ADD27R,1.5080X1.5080*%
%ADD28C,1.2000*%
%ADD29R,1.5080X1.5080*%
%ADD30R,1.5750X1.5750*%
%ADD31C,1.5750*%
G36*
X201203Y313430D02*
X201167Y313250D01*
Y308750D01*
X201497Y307092D01*
X202436Y305686D01*
X203412Y305034D01*
Y302517D01*
X202256Y301744D01*
X201261Y300256D01*
X200912Y298500D01*
Y285500D01*
X201261Y283744D01*
X202256Y282256D01*
X203412Y281483D01*
Y267665D01*
X202239Y267179D01*
X188503Y280914D01*
X188628Y282178D01*
X188744Y282256D01*
X189739Y283744D01*
X190088Y285500D01*
Y298500D01*
X189739Y300256D01*
X188744Y301744D01*
X187588Y302517D01*
Y305034D01*
X188564Y305686D01*
X189503Y307092D01*
X189833Y308750D01*
Y313250D01*
X189797Y313430D01*
X190603Y314412D01*
X200397D01*
X201203Y313430D01*
D02*
G37*
G36*
X222436Y313686D02*
X223412Y313034D01*
Y302000D01*
X223761Y300244D01*
X224756Y298756D01*
X229412Y294100D01*
Y264551D01*
X228134Y264297D01*
X226977Y263523D01*
X226203Y262366D01*
X225931Y261000D01*
X226203Y259634D01*
X226961Y258500D01*
X226203Y257366D01*
X225931Y256000D01*
X225593Y255588D01*
X220900D01*
X212588Y263900D01*
Y281483D01*
X213744Y282256D01*
X214739Y283744D01*
X215088Y285500D01*
Y298500D01*
X214739Y300256D01*
X213744Y301744D01*
X212588Y302517D01*
Y305034D01*
X213564Y305686D01*
X214503Y307092D01*
X214833Y308750D01*
Y313250D01*
X214797Y313430D01*
X215603Y314412D01*
X221951D01*
X222436Y313686D01*
D02*
G37*
G36*
X161940Y251000D02*
X162180Y249173D01*
X162885Y247470D01*
X164007Y246007D01*
X165470Y244886D01*
X167173Y244180D01*
X169000Y243940D01*
X183000D01*
X184827Y244180D01*
X186530Y244886D01*
X187992Y246007D01*
X189114Y247470D01*
X189739Y248977D01*
X190993Y249518D01*
X202756Y237756D01*
X203784Y237069D01*
X204104Y235593D01*
X190993Y222482D01*
X189739Y223023D01*
X189114Y224530D01*
X187992Y225992D01*
X186530Y227114D01*
X184827Y227820D01*
X183000Y228060D01*
X169000D01*
X167173Y227820D01*
X165470Y227114D01*
X164007Y225992D01*
X162885Y224530D01*
X162180Y222827D01*
X161940Y221000D01*
Y217588D01*
X155966D01*
X155314Y218564D01*
X153908Y219503D01*
X152250Y219833D01*
X147750D01*
X147570Y219797D01*
X146588Y220603D01*
Y251397D01*
X147570Y252202D01*
X147750Y252167D01*
X152250D01*
X153908Y252496D01*
X155314Y253436D01*
X155966Y254412D01*
X161940D01*
Y251000D01*
D02*
G37*
G36*
X176203Y313430D02*
X176167Y313250D01*
Y308750D01*
X176497Y307092D01*
X177436Y305686D01*
X178412Y305034D01*
Y302517D01*
X177256Y301744D01*
X176261Y300256D01*
X175912Y298500D01*
Y285500D01*
X176261Y283744D01*
X177256Y282256D01*
X178412Y281483D01*
Y279929D01*
X178761Y278173D01*
X179756Y276685D01*
X209679Y246761D01*
X209193Y245588D01*
X207901D01*
X194244Y259244D01*
X192756Y260239D01*
X191000Y260588D01*
X190060D01*
Y261000D01*
X189820Y262827D01*
X189114Y264530D01*
X187992Y265992D01*
X186530Y267115D01*
X184827Y267820D01*
X183000Y268060D01*
X169000D01*
X167173Y267820D01*
X165470Y267115D01*
X164007Y265992D01*
X162885Y264530D01*
X162495Y263588D01*
X155966D01*
X155314Y264564D01*
X153908Y265503D01*
X152250Y265833D01*
X147750D01*
X147570Y265797D01*
X146588Y266603D01*
Y300412D01*
X148118D01*
X149874Y300761D01*
X151363Y301756D01*
X164019Y314412D01*
X175397D01*
X176203Y313430D01*
D02*
G37*
G36*
X378960Y245572D02*
Y244744D01*
X379339Y243328D01*
X376600Y240588D01*
X326907D01*
X326569Y241000D01*
X326297Y242366D01*
X325539Y243500D01*
X326297Y244634D01*
X326569Y246000D01*
X326907Y246412D01*
X376871D01*
X377690Y246575D01*
X378960Y245572D01*
D02*
G37*
G36*
X643295Y416181D02*
X639805Y413646D01*
X636354Y410195D01*
X633486Y406247D01*
X631271Y401900D01*
X629763Y397259D01*
X629000Y392440D01*
Y391750D01*
X660000D01*
Y390000D01*
X661750D01*
Y359000D01*
X662440D01*
X667259Y359763D01*
X671900Y361271D01*
X676247Y363486D01*
X680195Y366354D01*
X683645Y369805D01*
X686181Y373295D01*
X687451Y372882D01*
Y47118D01*
X686181Y46705D01*
X683645Y50195D01*
X680195Y53646D01*
X676247Y56514D01*
X671900Y58729D01*
X667259Y60237D01*
X662440Y61000D01*
X661750D01*
Y30000D01*
X660000D01*
Y28250D01*
X629000D01*
Y27560D01*
X629763Y22741D01*
X631271Y18100D01*
X633486Y13752D01*
X636354Y9805D01*
X639805Y6355D01*
X643295Y3819D01*
X642882Y2549D01*
X423834D01*
X423307Y3819D01*
X434328Y14839D01*
X435744Y14460D01*
X438256D01*
X440682Y15110D01*
X442858Y16366D01*
X444634Y18142D01*
X445890Y20318D01*
X446540Y22744D01*
Y25256D01*
X445890Y27682D01*
X444634Y29858D01*
X442858Y31634D01*
X440682Y32890D01*
X438256Y33540D01*
X435744D01*
X433318Y32890D01*
X431142Y31634D01*
X429366Y29858D01*
X428110Y27682D01*
X427460Y25256D01*
Y22744D01*
X427840Y21328D01*
X417696Y11185D01*
X300333D01*
X299846Y12358D01*
X302759Y15270D01*
X303754Y16759D01*
X303787Y16926D01*
X305165Y17344D01*
X306142Y16366D01*
X308318Y15110D01*
X310744Y14460D01*
X313256D01*
X315682Y15110D01*
X317858Y16366D01*
X319634Y18142D01*
X320890Y20318D01*
X321540Y22744D01*
Y25256D01*
X320890Y27682D01*
X319634Y29858D01*
X317858Y31634D01*
X315682Y32890D01*
X313256Y33540D01*
X310744D01*
X308318Y32890D01*
X306142Y31634D01*
X305373Y30864D01*
X304103Y31390D01*
Y41610D01*
X305373Y42136D01*
X306142Y41366D01*
X308318Y40110D01*
X310744Y39460D01*
X313256D01*
X315682Y40110D01*
X317858Y41366D01*
X319634Y43142D01*
X320890Y45318D01*
X321540Y47744D01*
Y50256D01*
X320890Y52682D01*
X319634Y54858D01*
X317858Y56634D01*
X315682Y57890D01*
X313256Y58540D01*
X310744D01*
X308318Y57890D01*
X306142Y56634D01*
X305373Y55864D01*
X304103Y56390D01*
Y60614D01*
X334254Y90765D01*
X335248Y92254D01*
X335598Y94010D01*
Y109115D01*
X336868Y109641D01*
X337892Y108616D01*
X340068Y107360D01*
X342494Y106710D01*
X345006D01*
X347432Y107360D01*
X349608Y108616D01*
X351384Y110392D01*
X352640Y112568D01*
X353290Y114994D01*
Y117506D01*
X352640Y119932D01*
X351384Y122108D01*
X349608Y123884D01*
X348338Y124617D01*
Y128377D01*
X349608Y128903D01*
X359589Y118922D01*
X359210Y117506D01*
Y114994D01*
X359860Y112568D01*
X361116Y110392D01*
X362892Y108616D01*
X365068Y107360D01*
X367494Y106710D01*
X370006D01*
X372432Y107360D01*
X374608Y108616D01*
X376384Y110392D01*
X377640Y112568D01*
X378290Y114994D01*
Y117506D01*
X377640Y119932D01*
X376384Y122108D01*
X374608Y123884D01*
X372432Y125140D01*
X370006Y125790D01*
X367494D01*
X366078Y125411D01*
X356588Y134901D01*
Y195000D01*
X356557Y195159D01*
X357727Y195784D01*
X364412Y189100D01*
Y176966D01*
X363436Y176314D01*
X362497Y174908D01*
X362167Y173250D01*
Y168750D01*
X362497Y167092D01*
X363436Y165686D01*
X364842Y164747D01*
X366500Y164417D01*
X371500D01*
X373158Y164747D01*
X374564Y165686D01*
X375503Y167092D01*
X375833Y168750D01*
Y173250D01*
X375503Y174908D01*
X374564Y176314D01*
X373588Y176966D01*
Y191000D01*
X373239Y192756D01*
X372244Y194244D01*
X347244Y219244D01*
X345756Y220239D01*
X344000Y220588D01*
X326907D01*
X326569Y221000D01*
X326297Y222366D01*
X325539Y223500D01*
X326297Y224634D01*
X326569Y226000D01*
X326907Y226412D01*
X376599D01*
X379339Y223672D01*
X378960Y222256D01*
Y219744D01*
X379610Y217318D01*
X380866Y215142D01*
X382642Y213366D01*
X384818Y212110D01*
X387244Y211460D01*
X389756D01*
X392182Y212110D01*
X394358Y213366D01*
X396134Y215142D01*
X397390Y217318D01*
X398040Y219744D01*
Y222256D01*
X397390Y224682D01*
X396134Y226858D01*
X394358Y228634D01*
X392182Y229890D01*
X389756Y230540D01*
X387244D01*
X385828Y230161D01*
X382489Y233500D01*
X385828Y236839D01*
X387244Y236460D01*
X389756D01*
X392182Y237110D01*
X394358Y238366D01*
X396134Y240142D01*
X397390Y242318D01*
X398040Y244744D01*
Y247256D01*
X397390Y249682D01*
X396134Y251858D01*
X395432Y252560D01*
X395427Y252808D01*
X395874Y253913D01*
X397165Y254170D01*
X398653Y255165D01*
X479744Y336256D01*
X480739Y337744D01*
X481088Y339500D01*
Y387500D01*
X480739Y389256D01*
X479744Y390744D01*
X468994Y401494D01*
X467506Y402489D01*
X465750Y402838D01*
X438250D01*
X436494Y402489D01*
X435006Y401494D01*
X424478Y390966D01*
X423792Y389941D01*
X422912Y389705D01*
X421088Y388652D01*
X419599Y387162D01*
X418545Y385338D01*
X418000Y383303D01*
Y381197D01*
X418545Y379162D01*
X419599Y377338D01*
X421088Y375848D01*
X422912Y374795D01*
X424947Y374250D01*
X427053D01*
X429088Y374795D01*
X430912Y375848D01*
X432402Y377338D01*
X433455Y379162D01*
X434000Y381197D01*
Y383303D01*
X433455Y385338D01*
X432859Y386370D01*
X440150Y393662D01*
X463849D01*
X465991Y391520D01*
X465465Y390250D01*
X464947D01*
X462912Y389705D01*
X461088Y388652D01*
X459598Y387162D01*
X458545Y385338D01*
X458000Y383303D01*
Y381197D01*
X458545Y379162D01*
X459598Y377338D01*
X461088Y375848D01*
X462912Y374795D01*
X464947Y374250D01*
X467053D01*
X469088Y374795D01*
X470642Y375692D01*
X471912Y375224D01*
Y341400D01*
X399025Y268514D01*
X397886Y269171D01*
X398040Y269744D01*
Y272256D01*
X397390Y274682D01*
X396134Y276858D01*
X394637Y278355D01*
X394609Y278440D01*
X394647Y279480D01*
X394776Y279859D01*
X395744Y280506D01*
X449244Y334006D01*
X450239Y335494D01*
X450588Y337250D01*
Y339201D01*
X451314Y339686D01*
X452253Y341092D01*
X452583Y342750D01*
Y347750D01*
X452253Y349408D01*
X451314Y350814D01*
X450588Y351299D01*
Y375661D01*
X450912Y375848D01*
X452402Y377338D01*
X453455Y379162D01*
X454000Y381197D01*
Y383303D01*
X453455Y385338D01*
X452402Y387162D01*
X450912Y388652D01*
X449088Y389705D01*
X447053Y390250D01*
X444947D01*
X442912Y389705D01*
X441088Y388652D01*
X439598Y387162D01*
X438545Y385338D01*
X438000Y383303D01*
Y381197D01*
X438545Y379162D01*
X439598Y377338D01*
X441088Y375848D01*
X441412Y375661D01*
Y351299D01*
X440686Y350814D01*
X439747Y349408D01*
X439417Y347750D01*
Y342750D01*
X439747Y341092D01*
X440686Y339686D01*
X440526Y338265D01*
X390600Y288338D01*
X380750D01*
X378994Y287989D01*
X377506Y286994D01*
X364100Y273588D01*
X360132D01*
X359327Y274570D01*
X359363Y274750D01*
Y275250D01*
X342637D01*
Y274750D01*
X342673Y274570D01*
X341867Y273588D01*
X309129D01*
X308802Y273845D01*
X308131Y274710D01*
X308338Y275750D01*
Y284849D01*
X314900Y291412D01*
X335000D01*
X336756Y291761D01*
X338244Y292756D01*
X389244Y343756D01*
X390239Y345244D01*
X390588Y347000D01*
Y375661D01*
X390912Y375848D01*
X392402Y377338D01*
X393455Y379162D01*
X394000Y381197D01*
Y383303D01*
X393455Y385338D01*
X392402Y387162D01*
X390912Y388652D01*
X389088Y389705D01*
X387053Y390250D01*
X384947D01*
X382912Y389705D01*
X381088Y388652D01*
X379599Y387162D01*
X378545Y385338D01*
X378000Y383303D01*
Y381197D01*
X378545Y379162D01*
X379599Y377338D01*
X381088Y375848D01*
X381412Y375661D01*
Y348900D01*
X333100Y300588D01*
X313000D01*
X311244Y300239D01*
X309756Y299244D01*
X300506Y289994D01*
X299511Y288506D01*
X299162Y286750D01*
Y284157D01*
X298750Y283819D01*
X297384Y283547D01*
X296250Y282789D01*
X295116Y283547D01*
X293750Y283819D01*
X292384Y283547D01*
X291250Y282789D01*
X290116Y283547D01*
X288750Y283819D01*
X287384Y283547D01*
X286250Y282789D01*
X285116Y283547D01*
X283750Y283819D01*
X283338Y284157D01*
Y289849D01*
X289694Y296206D01*
X290689Y297694D01*
X291038Y299450D01*
Y312117D01*
X291160Y312299D01*
X291407Y313539D01*
X292693Y313497D01*
X292817Y312553D01*
X293472Y310972D01*
X294514Y309614D01*
X295872Y308572D01*
X297400Y307939D01*
Y319000D01*
Y330061D01*
X295872Y329428D01*
X294514Y328386D01*
X293472Y327028D01*
X292817Y325447D01*
X292693Y324503D01*
X291407Y324461D01*
X291160Y325701D01*
X290055Y327355D01*
X288401Y328460D01*
X286450Y328848D01*
X284499Y328460D01*
X282845Y327355D01*
X281740Y325701D01*
X281352Y323750D01*
Y314250D01*
X281740Y312299D01*
X281862Y312117D01*
Y301350D01*
X279512Y299000D01*
X278338Y299486D01*
Y312117D01*
X278460Y312299D01*
X278848Y314250D01*
Y323750D01*
X278460Y325701D01*
X277355Y327355D01*
X275701Y328460D01*
X273750Y328848D01*
X271799Y328460D01*
X270145Y327355D01*
X269040Y325701D01*
X268652Y323750D01*
Y314250D01*
X269040Y312299D01*
X269162Y312117D01*
Y304851D01*
X267988Y304365D01*
X266338Y306015D01*
Y342750D01*
X265989Y344506D01*
X264994Y345994D01*
X262588Y348400D01*
Y350284D01*
X263564Y350936D01*
X264503Y352342D01*
X264833Y354000D01*
Y358500D01*
X264503Y360158D01*
X263564Y361564D01*
X262158Y362503D01*
X260500Y362833D01*
X255500D01*
X253842Y362503D01*
X252436Y361564D01*
X251497Y360158D01*
X251167Y358500D01*
Y354000D01*
X251497Y352342D01*
X252436Y350936D01*
X253412Y350284D01*
Y346500D01*
X253761Y344744D01*
X254756Y343256D01*
X257162Y340849D01*
Y304115D01*
X257511Y302359D01*
X258506Y300871D01*
X264162Y295215D01*
Y284157D01*
X263750Y283819D01*
X262384Y283547D01*
X261250Y282789D01*
X260116Y283547D01*
X258750Y283819D01*
X257540Y283578D01*
X257355Y283855D01*
X255701Y284960D01*
X253750Y285348D01*
X253338Y285686D01*
Y301250D01*
X252989Y303006D01*
X251994Y304494D01*
X247588Y308901D01*
Y313034D01*
X248564Y313686D01*
X249503Y315092D01*
X249833Y316750D01*
Y321250D01*
X249503Y322908D01*
X248564Y324314D01*
X247158Y325253D01*
X245500Y325583D01*
X240500D01*
X238842Y325253D01*
X237436Y324314D01*
X236951Y323588D01*
X234049D01*
X233564Y324314D01*
X232158Y325253D01*
X230500Y325583D01*
X225500D01*
X223842Y325253D01*
X222436Y324314D01*
X221951Y323588D01*
X217132D01*
X216327Y324570D01*
X216363Y324750D01*
Y325250D01*
X199637D01*
Y324750D01*
X199673Y324570D01*
X198867Y323588D01*
X192132D01*
X191327Y324570D01*
X191363Y324750D01*
Y325250D01*
X174637D01*
Y324750D01*
X174673Y324570D01*
X173867Y323588D01*
X162118D01*
X160362Y323239D01*
X158874Y322244D01*
X146218Y309588D01*
X119196D01*
Y320375D01*
X118913Y322529D01*
X118081Y324536D01*
X116759Y326259D01*
X115036Y327581D01*
X113029Y328413D01*
X112694Y328457D01*
Y335313D01*
X113306Y336229D01*
X113733Y338375D01*
Y348875D01*
X113306Y351021D01*
X112881Y351656D01*
Y385916D01*
X112902Y385937D01*
X114202Y388188D01*
X114875Y390700D01*
Y393300D01*
X114202Y395812D01*
X112902Y398063D01*
X111063Y399902D01*
X108812Y401202D01*
X106300Y401875D01*
X103700D01*
X101188Y401202D01*
X98937Y399902D01*
X97098Y398063D01*
X95798Y395812D01*
X95125Y393300D01*
Y390700D01*
X95798Y388188D01*
X96743Y386551D01*
Y352217D01*
X95944Y351021D01*
X95517Y348875D01*
Y338375D01*
X95944Y336229D01*
X96556Y335313D01*
Y328457D01*
X96221Y328413D01*
X94214Y327581D01*
X92491Y326259D01*
X91169Y324536D01*
X90337Y322529D01*
X90054Y320375D01*
Y286875D01*
X90337Y284721D01*
X91169Y282714D01*
X92491Y280991D01*
X94214Y279669D01*
X96221Y278837D01*
X98375Y278554D01*
X110875D01*
X113029Y278837D01*
X115036Y279669D01*
X116759Y280991D01*
X118081Y282714D01*
X118913Y284721D01*
X119196Y286875D01*
Y300412D01*
X137412D01*
Y268132D01*
X136430Y267327D01*
X136250Y267363D01*
X135750D01*
Y259000D01*
Y250637D01*
X136250D01*
X136430Y250673D01*
X137412Y249867D01*
Y222132D01*
X136430Y221327D01*
X136250Y221363D01*
X135750D01*
Y213000D01*
Y204637D01*
X136250D01*
X136556Y204698D01*
X137612Y203993D01*
X137761Y203244D01*
X138756Y201756D01*
X148131Y192381D01*
X149619Y191386D01*
X151375Y191037D01*
X178201D01*
X178436Y190686D01*
X179842Y189747D01*
X181500Y189417D01*
X186500D01*
X188158Y189747D01*
X189564Y190686D01*
X190049Y191412D01*
X192951D01*
X193436Y190686D01*
X194842Y189747D01*
X196500Y189417D01*
X201500D01*
X203158Y189747D01*
X204564Y190686D01*
X205503Y192092D01*
X205833Y193750D01*
Y198250D01*
X205503Y199908D01*
X204564Y201314D01*
X204424Y202935D01*
X217901Y216412D01*
X225593D01*
X225931Y216000D01*
X226203Y214634D01*
X226961Y213500D01*
X226203Y212366D01*
X225931Y211000D01*
X226203Y209634D01*
X226961Y208500D01*
X226203Y207366D01*
X225931Y206000D01*
X226203Y204634D01*
X226977Y203477D01*
X228134Y202703D01*
X229500Y202431D01*
X238500D01*
X239866Y202703D01*
X241023Y203477D01*
X241797Y204634D01*
X242069Y206000D01*
X241797Y207366D01*
X241039Y208500D01*
X241797Y209634D01*
X242069Y211000D01*
X241797Y212366D01*
X241039Y213500D01*
X241797Y214634D01*
X242069Y216000D01*
X241797Y217366D01*
X241039Y218500D01*
X241797Y219634D01*
X242069Y221000D01*
X241828Y222210D01*
X242105Y222395D01*
X243210Y224049D01*
X243598Y226000D01*
X243936Y226412D01*
X271000D01*
X272756Y226761D01*
X274244Y227756D01*
X297988Y251500D01*
X299162Y251014D01*
Y201186D01*
X298750Y200848D01*
X296799Y200460D01*
X295145Y199355D01*
X294960Y199078D01*
X293750Y199319D01*
X292384Y199047D01*
X291250Y198289D01*
X290116Y199047D01*
X288750Y199319D01*
X287384Y199047D01*
X286250Y198289D01*
X285116Y199047D01*
X283750Y199319D01*
X282384Y199047D01*
X281250Y198289D01*
X280116Y199047D01*
X278750Y199319D01*
X277384Y199047D01*
X276250Y198289D01*
X275116Y199047D01*
X273750Y199319D01*
X272384Y199047D01*
X271250Y198289D01*
X270116Y199047D01*
X268750Y199319D01*
X267384Y199047D01*
X266250Y198289D01*
X265116Y199047D01*
X263750Y199319D01*
X262384Y199047D01*
X261250Y198289D01*
X260116Y199047D01*
X258750Y199319D01*
X257384Y199047D01*
X256250Y198289D01*
X255116Y199047D01*
X253750Y199319D01*
X252384Y199047D01*
X251250Y198289D01*
X250116Y199047D01*
X248750Y199319D01*
X247384Y199047D01*
X246227Y198273D01*
X245453Y197116D01*
X245181Y195750D01*
Y186750D01*
X245453Y185384D01*
X246227Y184227D01*
X247384Y183453D01*
X248750Y183181D01*
X250116Y183453D01*
X251250Y184211D01*
X252384Y183453D01*
X253750Y183181D01*
X254162Y182843D01*
Y175034D01*
X241716Y162588D01*
X47903D01*
X46858Y163634D01*
X44682Y164890D01*
X42256Y165540D01*
X39744D01*
X37318Y164890D01*
X35142Y163634D01*
X33366Y161858D01*
X32110Y159682D01*
X31460Y157256D01*
Y154744D01*
X32110Y152318D01*
X33366Y150142D01*
X35142Y148366D01*
X37318Y147110D01*
X39744Y146460D01*
X42256D01*
X44682Y147110D01*
X46858Y148366D01*
X48634Y150142D01*
X49890Y152318D01*
X50183Y153412D01*
X243616D01*
X245372Y153761D01*
X246861Y154756D01*
X257988Y165884D01*
X259162Y165398D01*
Y151612D01*
X245138Y137588D01*
X47903D01*
X46858Y138634D01*
X44682Y139890D01*
X42256Y140540D01*
X39744D01*
X37318Y139890D01*
X35142Y138634D01*
X33366Y136858D01*
X32110Y134682D01*
X31460Y132256D01*
Y129744D01*
X32110Y127318D01*
X33366Y125142D01*
X35142Y123366D01*
X37318Y122110D01*
X39744Y121460D01*
X42256D01*
X44682Y122110D01*
X46858Y123366D01*
X48634Y125142D01*
X49890Y127318D01*
X50183Y128412D01*
X207352D01*
X207710Y127290D01*
X207710D01*
Y118000D01*
X218750D01*
X229790D01*
Y127290D01*
X229790D01*
X230148Y128412D01*
X247039D01*
X248794Y128761D01*
X250283Y129756D01*
X262988Y142461D01*
X264162Y141975D01*
Y136758D01*
X253004Y125600D01*
X252009Y124111D01*
X251871Y123417D01*
X250493Y122999D01*
X249608Y123884D01*
X247432Y125140D01*
X245006Y125790D01*
X242494D01*
X240068Y125140D01*
X237892Y123884D01*
X236116Y122108D01*
X234860Y119932D01*
X234210Y117506D01*
Y114994D01*
X234437Y114147D01*
X230963Y110673D01*
X229790Y111159D01*
Y114500D01*
X220500D01*
Y105210D01*
X223841D01*
X224327Y104037D01*
X219769Y99479D01*
X203731D01*
X191605Y111605D01*
X189951Y112710D01*
X188000Y113098D01*
X50540D01*
Y115540D01*
X31460D01*
Y115409D01*
X30287Y114923D01*
X26098Y119112D01*
Y242888D01*
X28322Y245113D01*
X28568Y245160D01*
X29886Y244880D01*
X30785Y243535D01*
X32604Y242319D01*
X34750Y241892D01*
X45250D01*
X47396Y242319D01*
X49215Y243535D01*
X50431Y245354D01*
X50540Y245902D01*
X76078D01*
X78029Y246290D01*
X79683Y247395D01*
X83605Y251317D01*
X84710Y252971D01*
X85098Y254922D01*
Y264000D01*
X84710Y265951D01*
X84078Y266896D01*
Y269000D01*
X83768Y270561D01*
X82884Y271884D01*
X81561Y272768D01*
X80000Y273078D01*
X78439Y272768D01*
X77857Y272379D01*
X77465Y272965D01*
X75646Y274181D01*
X75250Y274260D01*
Y265752D01*
X74901Y264000D01*
X72098D01*
Y269000D01*
X71750Y270752D01*
Y274260D01*
X71354Y274181D01*
X70910Y273884D01*
X70105Y275090D01*
X67069Y278125D01*
X67317Y279371D01*
X68036Y279669D01*
X69759Y280991D01*
X71081Y282714D01*
X71913Y284721D01*
X72196Y286875D01*
Y320375D01*
X71913Y322529D01*
X71081Y324536D01*
X69759Y326259D01*
X68036Y327581D01*
X66029Y328413D01*
X63875Y328696D01*
X51375D01*
X49221Y328413D01*
X47214Y327581D01*
X45491Y326259D01*
X44169Y324536D01*
X43337Y322529D01*
X43054Y320375D01*
Y286875D01*
X43337Y284721D01*
X44169Y282714D01*
X45491Y280991D01*
X47214Y279669D01*
X49221Y278837D01*
X51375Y278554D01*
X55919D01*
Y276968D01*
X56307Y275017D01*
X57412Y273363D01*
X57730Y273045D01*
X57616Y271884D01*
X56732Y270561D01*
X56422Y269000D01*
Y266896D01*
X55790Y265951D01*
X55402Y264000D01*
Y256098D01*
X50540D01*
X50431Y256646D01*
X49215Y258465D01*
X47396Y259681D01*
X45250Y260108D01*
X34750D01*
X32604Y259681D01*
X30785Y258465D01*
X29569Y256646D01*
X29460Y256098D01*
X27000D01*
X25049Y255710D01*
X23395Y254605D01*
X17395Y248605D01*
X16290Y246951D01*
X15902Y245000D01*
Y117000D01*
X16290Y115049D01*
X17395Y113395D01*
X26198Y104592D01*
X27852Y103487D01*
X29803Y103099D01*
X31460D01*
Y96460D01*
X35902D01*
Y96000D01*
X36290Y94049D01*
X37395Y92395D01*
X109395Y20395D01*
X111049Y19290D01*
X113000Y18902D01*
X128927D01*
X129366Y18142D01*
X131142Y16366D01*
X133318Y15110D01*
X135744Y14460D01*
X138256D01*
X140682Y15110D01*
X142858Y16366D01*
X144634Y18142D01*
X145890Y20318D01*
X146540Y22744D01*
Y25256D01*
X145890Y27682D01*
X144634Y29858D01*
X142858Y31634D01*
X140682Y32890D01*
X138256Y33540D01*
X135744D01*
X133318Y32890D01*
X131142Y31634D01*
X129366Y29858D01*
X128927Y29098D01*
X115112D01*
X48923Y95287D01*
X49409Y96460D01*
X50540D01*
Y102902D01*
X185889D01*
X198015Y90776D01*
X199668Y89671D01*
X201619Y89283D01*
X221881D01*
X223832Y89671D01*
X225485Y90776D01*
X241647Y106937D01*
X242494Y106710D01*
X245006D01*
X247432Y107360D01*
X249608Y108616D01*
X250390Y109398D01*
X251660Y108872D01*
Y101148D01*
X224100Y73588D01*
X210000D01*
X208244Y73239D01*
X206756Y72244D01*
X196466Y61955D01*
X195472Y60466D01*
X195123Y58711D01*
Y56165D01*
X193853Y55639D01*
X192858Y56634D01*
X190682Y57890D01*
X188256Y58540D01*
X185744D01*
X183318Y57890D01*
X181142Y56634D01*
X179366Y54858D01*
X178110Y52682D01*
X177460Y50256D01*
Y47744D01*
X178110Y45318D01*
X179366Y43142D01*
X181142Y41366D01*
X183318Y40110D01*
X185744Y39460D01*
X188256D01*
X190682Y40110D01*
X192858Y41366D01*
X193853Y42361D01*
X195123Y41835D01*
Y33150D01*
X193949Y32664D01*
X193779Y32834D01*
X191261Y34288D01*
X188750Y34960D01*
Y24000D01*
Y13039D01*
X191261Y13712D01*
X193779Y15166D01*
X194426Y15813D01*
X196061Y15652D01*
X196466Y15045D01*
X207693Y3819D01*
X207167Y2549D01*
X47118D01*
X46705Y3819D01*
X50195Y6355D01*
X53646Y9805D01*
X56514Y13752D01*
X58729Y18100D01*
X60237Y22741D01*
X61000Y27560D01*
Y28250D01*
X30000D01*
Y30000D01*
X28250D01*
Y61000D01*
X27560D01*
X22741Y60237D01*
X18100Y58729D01*
X13752Y56514D01*
X9805Y53646D01*
X6355Y50195D01*
X3819Y46705D01*
X2549Y47118D01*
Y372882D01*
X3819Y373295D01*
X6355Y369805D01*
X9805Y366354D01*
X13752Y363486D01*
X18100Y361271D01*
X22741Y359763D01*
X27560Y359000D01*
X28250D01*
Y390000D01*
X30000D01*
Y391750D01*
X61000D01*
Y392440D01*
X60237Y397259D01*
X58729Y401900D01*
X56514Y406247D01*
X53646Y410195D01*
X50195Y413646D01*
X46705Y416181D01*
X47118Y417451D01*
X642882D01*
X643295Y416181D01*
D02*
G37*
G36*
X237436Y313686D02*
X238412Y313034D01*
Y307000D01*
X238761Y305244D01*
X239756Y303756D01*
X244162Y299349D01*
Y275750D01*
X244511Y273994D01*
X245181Y272991D01*
Y271250D01*
X245453Y269884D01*
X246227Y268727D01*
X247384Y267953D01*
X248750Y267681D01*
X249960Y267922D01*
X250145Y267645D01*
X251799Y266540D01*
X252000Y266500D01*
Y269813D01*
X252047Y269884D01*
X252319Y271250D01*
Y272991D01*
X252989Y273994D01*
X253339Y275750D01*
X255181D01*
Y271250D01*
X255453Y269884D01*
X255500Y269813D01*
Y266500D01*
X255701Y266540D01*
X257355Y267645D01*
X257540Y267922D01*
X258750Y267681D01*
X260116Y267953D01*
X261250Y268711D01*
X262384Y267953D01*
X263750Y267681D01*
X265116Y267953D01*
X266250Y268711D01*
X267384Y267953D01*
X268750Y267681D01*
X270116Y267953D01*
X271250Y268711D01*
X272384Y267953D01*
X273750Y267681D01*
X275116Y267953D01*
X276250Y268711D01*
X277384Y267953D01*
X278750Y267681D01*
X280116Y267953D01*
X281250Y268711D01*
X282384Y267953D01*
X283750Y267681D01*
X285116Y267953D01*
X286250Y268711D01*
X287384Y267953D01*
X288750Y267681D01*
X290116Y267953D01*
X291250Y268711D01*
X292384Y267953D01*
X293750Y267681D01*
X295116Y267953D01*
X296250Y268711D01*
X297384Y267953D01*
X298750Y267681D01*
X299557Y267842D01*
X300183Y266672D01*
X269100Y235588D01*
X242407D01*
X242069Y236000D01*
X241797Y237366D01*
X241039Y238500D01*
X241797Y239634D01*
X242069Y241000D01*
X241797Y242366D01*
X241039Y243500D01*
X241797Y244634D01*
X242069Y246000D01*
X241797Y247366D01*
X241039Y248500D01*
X241797Y249634D01*
X242069Y251000D01*
X241797Y252366D01*
X241039Y253500D01*
X241797Y254634D01*
X242069Y256000D01*
X241797Y257366D01*
X241039Y258500D01*
X241797Y259634D01*
X242069Y261000D01*
X241797Y262366D01*
X241023Y263523D01*
X239866Y264297D01*
X238588Y264551D01*
Y296000D01*
X238239Y297756D01*
X237244Y299244D01*
X232588Y303900D01*
Y313034D01*
X233564Y313686D01*
X234049Y314412D01*
X236951D01*
X237436Y313686D01*
D02*
G37*
G36*
X225931Y231000D02*
X226172Y229790D01*
X225895Y229605D01*
X224790Y227951D01*
X224402Y226000D01*
X224064Y225588D01*
X216000D01*
X214244Y225239D01*
X212756Y224244D01*
X195756Y207244D01*
X194761Y205756D01*
X194412Y204000D01*
Y201966D01*
X193436Y201314D01*
X192951Y200588D01*
X190049D01*
X189564Y201314D01*
X188158Y202253D01*
X186500Y202583D01*
X181500D01*
X179842Y202253D01*
X178436Y201314D01*
X177700Y200213D01*
X153275D01*
X148592Y204897D01*
X149118Y206167D01*
X152250D01*
X153908Y206497D01*
X155314Y207436D01*
X155966Y208412D01*
X162495D01*
X162885Y207470D01*
X164007Y206007D01*
X165470Y204886D01*
X167173Y204180D01*
X169000Y203939D01*
X183000D01*
X184827Y204180D01*
X186530Y204886D01*
X187992Y206007D01*
X189114Y207470D01*
X189820Y209173D01*
X190060Y211000D01*
Y211154D01*
X190743D01*
X192498Y211504D01*
X193987Y212498D01*
X212901Y231412D01*
X225593D01*
X225931Y231000D01*
D02*
G37*
G36*
X310395Y252395D02*
X310672Y252210D01*
X310431Y251000D01*
X310703Y249634D01*
X311461Y248500D01*
X310703Y247366D01*
X310431Y246000D01*
X310703Y244634D01*
X311461Y243500D01*
X310703Y242366D01*
X310431Y241000D01*
X310703Y239634D01*
X311461Y238500D01*
X310703Y237366D01*
X310431Y236000D01*
X310703Y234634D01*
X311461Y233500D01*
X310703Y232366D01*
X310431Y231000D01*
X310703Y229634D01*
X311461Y228500D01*
X310703Y227366D01*
X310431Y226000D01*
X310703Y224634D01*
X311461Y223500D01*
X310703Y222366D01*
X310431Y221000D01*
X310703Y219634D01*
X311461Y218500D01*
X310703Y217366D01*
X310431Y216000D01*
X310703Y214634D01*
X311461Y213500D01*
X310703Y212366D01*
X310431Y211000D01*
X310703Y209634D01*
X311461Y208500D01*
X310703Y207366D01*
X310431Y206000D01*
X310703Y204634D01*
X311477Y203477D01*
X312634Y202703D01*
X314000Y202431D01*
X315741D01*
X316744Y201761D01*
X318500Y201412D01*
X331100D01*
X339162Y193349D01*
Y124617D01*
X337892Y123884D01*
X336705Y122696D01*
X335327Y123114D01*
X335248Y123509D01*
X334254Y124997D01*
X327546Y131705D01*
X326058Y132700D01*
X324302Y133049D01*
X305961D01*
X304205Y132700D01*
X302716Y131705D01*
X299512Y128500D01*
X298338Y128986D01*
Y179402D01*
X298582Y179598D01*
X300285Y179336D01*
X300506Y179006D01*
X315739Y163772D01*
X315497Y163408D01*
X315167Y161750D01*
Y157250D01*
X315497Y155592D01*
X316436Y154186D01*
X317842Y153247D01*
X319500Y152917D01*
X324500D01*
X326158Y153247D01*
X327564Y154186D01*
X328503Y155592D01*
X328833Y157250D01*
Y161750D01*
X328503Y163408D01*
X327564Y164814D01*
X326252Y165691D01*
X326239Y165756D01*
X325244Y167244D01*
X308338Y184151D01*
Y191250D01*
Y252101D01*
X308815Y252537D01*
X310395Y252395D01*
D02*
G37*
G36*
X282384Y183453D02*
X283750Y183181D01*
X284162Y182843D01*
Y154134D01*
X279512Y149484D01*
X278338Y149970D01*
Y182843D01*
X278750Y183181D01*
X280116Y183453D01*
X281250Y184211D01*
X282384Y183453D01*
D02*
G37*
G36*
X326421Y108634D02*
Y95910D01*
X296270Y65759D01*
X295276Y64270D01*
X294926Y62515D01*
Y56361D01*
X293657Y55835D01*
X292858Y56634D01*
X290682Y57890D01*
X288256Y58540D01*
X285744D01*
X283318Y57890D01*
X281142Y56634D01*
X279366Y54858D01*
X278110Y52682D01*
X277460Y50256D01*
Y47744D01*
X278110Y45318D01*
X279366Y43142D01*
X281142Y41366D01*
X283318Y40110D01*
X285744Y39460D01*
X288256D01*
X290682Y40110D01*
X292858Y41366D01*
X293657Y42165D01*
X294926Y41639D01*
Y31361D01*
X293657Y30835D01*
X292858Y31634D01*
X290682Y32890D01*
X288256Y33540D01*
X285744D01*
X283318Y32890D01*
X281142Y31634D01*
X279366Y29858D01*
X278110Y27682D01*
X277460Y25256D01*
Y22744D01*
X278110Y20318D01*
X279366Y18142D01*
X280054Y17455D01*
X279528Y16185D01*
X269472D01*
X268946Y17455D01*
X269634Y18142D01*
X270890Y20318D01*
X271540Y22744D01*
Y25256D01*
X270890Y27682D01*
X269634Y29858D01*
X267858Y31634D01*
X265682Y32890D01*
X263256Y33540D01*
X260744D01*
X258318Y32890D01*
X256142Y31634D01*
X254366Y29858D01*
X253110Y27682D01*
X252460Y25256D01*
Y22744D01*
X253110Y20318D01*
X254366Y18142D01*
X255054Y17455D01*
X254528Y16185D01*
X244472D01*
X243946Y17455D01*
X244634Y18142D01*
X245890Y20318D01*
X246540Y22744D01*
Y25256D01*
X246161Y26672D01*
X252778Y33290D01*
X253773Y34778D01*
X254122Y36534D01*
Y41590D01*
X255392Y42116D01*
X256142Y41366D01*
X258318Y40110D01*
X260744Y39460D01*
X263256D01*
X265682Y40110D01*
X267858Y41366D01*
X269634Y43142D01*
X270890Y45318D01*
X271540Y47744D01*
Y50256D01*
X270890Y52682D01*
X269634Y54858D01*
X267858Y56634D01*
X265682Y57890D01*
X263256Y58540D01*
X260744D01*
X258318Y57890D01*
X256142Y56634D01*
X255392Y55884D01*
X254122Y56410D01*
Y71094D01*
X284270Y101241D01*
X284756Y100756D01*
X286244Y99761D01*
X288000Y99412D01*
X306500D01*
X308256Y99761D01*
X309744Y100756D01*
X316078Y107089D01*
X317494Y106710D01*
X320006D01*
X322432Y107360D01*
X324608Y108616D01*
X325151Y109160D01*
X326421Y108634D01*
D02*
G37*
G36*
X276884Y109121D02*
X277801Y107749D01*
X246290Y76238D01*
X245295Y74750D01*
X244946Y72994D01*
Y56342D01*
X243676Y55816D01*
X242858Y56634D01*
X240682Y57890D01*
X238256Y58540D01*
X235744D01*
X233318Y57890D01*
X231142Y56634D01*
X229366Y54858D01*
X228110Y52682D01*
X227460Y50256D01*
Y47744D01*
X228110Y45318D01*
X229366Y43142D01*
X231142Y41366D01*
X233318Y40110D01*
X235744Y39460D01*
X238256D01*
X240682Y40110D01*
X242858Y41366D01*
X243676Y42184D01*
X244946Y41658D01*
Y38435D01*
X239672Y33161D01*
X238256Y33540D01*
X235744D01*
X233318Y32890D01*
X231142Y31634D01*
X229366Y29858D01*
X228110Y27682D01*
X227460Y25256D01*
Y22744D01*
X228110Y20318D01*
X229366Y18142D01*
X230054Y17455D01*
X229528Y16185D01*
X226304D01*
X221161Y21328D01*
X221540Y22744D01*
Y25256D01*
X220890Y27682D01*
X219634Y29858D01*
X217858Y31634D01*
X215682Y32890D01*
X213256Y33540D01*
X210744D01*
X208318Y32890D01*
X206142Y31634D01*
X205569Y31060D01*
X204299Y31586D01*
Y41413D01*
X205569Y41940D01*
X206142Y41366D01*
X208318Y40110D01*
X210744Y39460D01*
X213256D01*
X215682Y40110D01*
X217858Y41366D01*
X219634Y43142D01*
X220890Y45318D01*
X221540Y47744D01*
Y50256D01*
X220890Y52682D01*
X219634Y54858D01*
X217858Y56634D01*
X215682Y57890D01*
X213256Y58540D01*
X210744D01*
X208318Y57890D01*
X206557Y56873D01*
X205403Y57232D01*
X205150Y57438D01*
X205113Y57624D01*
X211901Y64412D01*
X226000D01*
X227756Y64761D01*
X229244Y65756D01*
X259492Y96004D01*
X260487Y97492D01*
X260836Y99248D01*
Y108876D01*
X262106Y109402D01*
X262892Y108616D01*
X265068Y107360D01*
X267494Y106710D01*
X270006D01*
X272432Y107360D01*
X274608Y108616D01*
X275510Y109519D01*
X276884Y109121D01*
D02*
G37*
%LPC*%
G36*
X141375Y403375D02*
X131750D01*
Y393750D01*
X141375D01*
Y403375D01*
D02*
G37*
G36*
X128250D02*
X118625D01*
Y393750D01*
X128250D01*
Y403375D01*
D02*
G37*
G36*
X407750Y391616D02*
Y384000D01*
X415366D01*
X414853Y385917D01*
X413602Y388083D01*
X411833Y389852D01*
X409667Y391102D01*
X407750Y391616D01*
D02*
G37*
G36*
X404250D02*
X402333Y391102D01*
X400167Y389852D01*
X398398Y388083D01*
X397147Y385917D01*
X396634Y384000D01*
X404250D01*
Y391616D01*
D02*
G37*
G36*
X310100Y384061D02*
X308572Y383428D01*
X307214Y382386D01*
X306172Y381028D01*
X304828D01*
X303786Y382386D01*
X302428Y383428D01*
X300900Y384061D01*
Y373000D01*
Y361939D01*
X302428Y362572D01*
X303786Y363614D01*
X304828Y364972D01*
X306172D01*
X307214Y363614D01*
X308572Y362572D01*
X310100Y361939D01*
Y373000D01*
Y384061D01*
D02*
G37*
G36*
X297400D02*
X295872Y383428D01*
X294514Y382386D01*
X293472Y381028D01*
X292128D01*
X291086Y382386D01*
X289728Y383428D01*
X288200Y384061D01*
Y373000D01*
Y361939D01*
X289728Y362572D01*
X291086Y363614D01*
X292128Y364972D01*
X293472D01*
X294514Y363614D01*
X295872Y362572D01*
X297400Y361939D01*
Y373000D01*
Y384061D01*
D02*
G37*
G36*
X284700D02*
X283172Y383428D01*
X281814Y382386D01*
X280772Y381028D01*
X279428D01*
X278386Y382386D01*
X277028Y383428D01*
X275500Y384061D01*
Y373000D01*
Y361939D01*
X277028Y362572D01*
X278386Y363614D01*
X279428Y364972D01*
X280772D01*
X281814Y363614D01*
X283172Y362572D01*
X284700Y361939D01*
Y373000D01*
Y384061D01*
D02*
G37*
G36*
X141375Y390250D02*
X131750D01*
Y380625D01*
X141375D01*
Y390250D01*
D02*
G37*
G36*
X128250D02*
X118625D01*
Y380625D01*
X128250D01*
Y390250D01*
D02*
G37*
G36*
X272000Y384061D02*
X270472Y383428D01*
X269114Y382386D01*
X268072Y381028D01*
X267417Y379447D01*
X267194Y377750D01*
Y376831D01*
X265924Y376706D01*
X265916Y376744D01*
X264646Y378646D01*
X262743Y379916D01*
X260500Y380363D01*
X259750D01*
Y372250D01*
Y364137D01*
X260500D01*
X262743Y364584D01*
X264646Y365854D01*
X265916Y367757D01*
X265953Y367943D01*
X267240Y367901D01*
X267417Y366553D01*
X268072Y364972D01*
X269114Y363614D01*
X270472Y362572D01*
X272000Y361939D01*
Y373000D01*
Y384061D01*
D02*
G37*
G36*
X313600D02*
Y374750D01*
X318406D01*
Y377750D01*
X318183Y379447D01*
X317528Y381028D01*
X316486Y382386D01*
X315128Y383428D01*
X313600Y384061D01*
D02*
G37*
G36*
X256250Y380363D02*
X255500D01*
X253256Y379916D01*
X251355Y378646D01*
X250084Y376744D01*
X249637Y374500D01*
Y374000D01*
X256250D01*
Y380363D01*
D02*
G37*
G36*
X415366Y380500D02*
X407750D01*
Y372884D01*
X409667Y373397D01*
X411833Y374648D01*
X413602Y376417D01*
X414853Y378583D01*
X415366Y380500D01*
D02*
G37*
G36*
X404250D02*
X396634D01*
X397147Y378583D01*
X398398Y376417D01*
X400167Y374648D01*
X402333Y373397D01*
X404250Y372884D01*
Y380500D01*
D02*
G37*
G36*
X256250Y370500D02*
X249637D01*
Y370000D01*
X250084Y367757D01*
X251355Y365854D01*
X253256Y364584D01*
X255500Y364137D01*
X256250D01*
Y370500D01*
D02*
G37*
G36*
X318406Y371250D02*
X313600D01*
Y361939D01*
X315128Y362572D01*
X316486Y363614D01*
X317528Y364972D01*
X318183Y366553D01*
X318406Y368250D01*
Y371250D01*
D02*
G37*
G36*
X658250Y388250D02*
X629000D01*
Y387560D01*
X629763Y382741D01*
X631271Y378100D01*
X633486Y373753D01*
X636354Y369805D01*
X639805Y366354D01*
X643753Y363486D01*
X648100Y361271D01*
X652741Y359763D01*
X657560Y359000D01*
X658250D01*
Y388250D01*
D02*
G37*
G36*
X61000D02*
X31750D01*
Y359000D01*
X32440D01*
X37259Y359763D01*
X41900Y361271D01*
X46248Y363486D01*
X50195Y366354D01*
X53646Y369805D01*
X56514Y373753D01*
X58729Y378100D01*
X60237Y382741D01*
X61000Y387560D01*
Y388250D01*
D02*
G37*
G36*
X432250Y353613D02*
X431750D01*
Y347000D01*
X438113D01*
Y347750D01*
X437666Y349994D01*
X436395Y351895D01*
X434494Y353166D01*
X432250Y353613D01*
D02*
G37*
G36*
X428250D02*
X427750D01*
X425507Y353166D01*
X423605Y351895D01*
X422334Y349994D01*
X421887Y347750D01*
Y347000D01*
X428250D01*
Y353613D01*
D02*
G37*
G36*
X135125Y355935D02*
X133375D01*
Y345375D01*
X142185D01*
Y348875D01*
X141945Y350702D01*
X141240Y352405D01*
X140118Y353867D01*
X138655Y354990D01*
X136952Y355695D01*
X135125Y355935D01*
D02*
G37*
G36*
X129875D02*
X128125D01*
X126298Y355695D01*
X124595Y354990D01*
X123133Y353867D01*
X122011Y352405D01*
X121305Y350702D01*
X121065Y348875D01*
Y345375D01*
X129875D01*
Y355935D01*
D02*
G37*
G36*
X241250Y343113D02*
X240500D01*
X238256Y342666D01*
X236355Y341395D01*
X236135Y341067D01*
X234865D01*
X234646Y341395D01*
X232744Y342666D01*
X230500Y343113D01*
X229750D01*
Y335000D01*
Y326887D01*
X230500D01*
X232744Y327334D01*
X234646Y328604D01*
X234865Y328933D01*
X236135D01*
X236355Y328604D01*
X238256Y327334D01*
X240500Y326887D01*
X241250D01*
Y335000D01*
Y343113D01*
D02*
G37*
G36*
X438113Y343500D02*
X431750D01*
Y336887D01*
X432250D01*
X434494Y337334D01*
X436395Y338605D01*
X437666Y340507D01*
X438113Y342750D01*
Y343500D01*
D02*
G37*
G36*
X428250D02*
X421887D01*
Y342750D01*
X422334Y340507D01*
X423605Y338605D01*
X425507Y337334D01*
X427750Y336887D01*
X428250D01*
Y343500D01*
D02*
G37*
G36*
X331750Y343113D02*
X331000D01*
Y336750D01*
X337613D01*
Y337250D01*
X337166Y339493D01*
X335896Y341395D01*
X333993Y342666D01*
X331750Y343113D01*
D02*
G37*
G36*
X327500D02*
X326750D01*
X324506Y342666D01*
X322604Y341395D01*
X321334Y339493D01*
X320887Y337250D01*
Y336750D01*
X327500D01*
Y343113D01*
D02*
G37*
G36*
X245500Y343113D02*
X244750D01*
Y336750D01*
X251363D01*
Y337250D01*
X250916Y339493D01*
X249646Y341395D01*
X247743Y342666D01*
X245500Y343113D01*
D02*
G37*
G36*
X226250D02*
X225500D01*
X223256Y342666D01*
X221355Y341395D01*
X220084Y339493D01*
X219637Y337250D01*
Y336750D01*
X226250D01*
Y343113D01*
D02*
G37*
G36*
X142185Y341875D02*
X133375D01*
Y331315D01*
X135125D01*
X136952Y331555D01*
X138655Y332261D01*
X140118Y333383D01*
X141240Y334845D01*
X141945Y336548D01*
X142185Y338375D01*
Y341875D01*
D02*
G37*
G36*
X129875D02*
X121065D01*
Y338375D01*
X121305Y336548D01*
X122011Y334845D01*
X123133Y333383D01*
X124595Y332261D01*
X126298Y331555D01*
X128125Y331315D01*
X129875D01*
Y341875D01*
D02*
G37*
G36*
X210500Y335113D02*
X209750D01*
Y328750D01*
X216363D01*
Y329250D01*
X215916Y331493D01*
X214646Y333396D01*
X212743Y334666D01*
X210500Y335113D01*
D02*
G37*
G36*
X206250D02*
X205500D01*
X203256Y334666D01*
X201355Y333396D01*
X200084Y331493D01*
X199637Y329250D01*
Y328750D01*
X206250D01*
Y335113D01*
D02*
G37*
G36*
X185500D02*
X184750D01*
Y328750D01*
X191363D01*
Y329250D01*
X190916Y331493D01*
X189646Y333396D01*
X187743Y334666D01*
X185500Y335113D01*
D02*
G37*
G36*
X181250D02*
X180500D01*
X178256Y334666D01*
X176355Y333396D01*
X175084Y331493D01*
X174637Y329250D01*
Y328750D01*
X181250D01*
Y335113D01*
D02*
G37*
G36*
X337613Y333250D02*
X331000D01*
Y326887D01*
X331750D01*
X333993Y327334D01*
X335896Y328605D01*
X337166Y330507D01*
X337613Y332750D01*
Y333250D01*
D02*
G37*
G36*
X327500D02*
X320887D01*
Y332750D01*
X321334Y330507D01*
X322604Y328605D01*
X324506Y327334D01*
X326750Y326887D01*
X327500D01*
Y333250D01*
D02*
G37*
G36*
X251363Y333250D02*
X244750D01*
Y326887D01*
X245500D01*
X247743Y327334D01*
X249646Y328604D01*
X250916Y330506D01*
X251363Y332750D01*
Y333250D01*
D02*
G37*
G36*
X226250D02*
X219637D01*
Y332750D01*
X220084Y330506D01*
X221355Y328604D01*
X223256Y327334D01*
X225500Y326887D01*
X226250D01*
Y333250D01*
D02*
G37*
G36*
X367053Y390250D02*
X364947D01*
X362912Y389705D01*
X361088Y388652D01*
X359598Y387162D01*
X358545Y385338D01*
X358000Y383303D01*
Y381197D01*
X358545Y379162D01*
X359598Y377338D01*
X361088Y375848D01*
X362325Y375134D01*
Y348400D01*
X337513Y323588D01*
X335299D01*
X334814Y324314D01*
X333408Y325253D01*
X331750Y325583D01*
X326750D01*
X325092Y325253D01*
X323686Y324314D01*
X323201Y323588D01*
X316948D01*
Y323750D01*
X316560Y325701D01*
X315455Y327355D01*
X313801Y328460D01*
X311850Y328848D01*
X309899Y328460D01*
X308245Y327355D01*
X307140Y325701D01*
X306893Y324461D01*
X305607Y324503D01*
X305483Y325447D01*
X304828Y327028D01*
X303786Y328386D01*
X302428Y329428D01*
X300900Y330061D01*
Y319000D01*
Y307939D01*
X302428Y308572D01*
X303786Y309614D01*
X304828Y310972D01*
X305483Y312553D01*
X305607Y313497D01*
X306893Y313539D01*
X307140Y312299D01*
X308245Y310645D01*
X309899Y309540D01*
X311850Y309152D01*
X313801Y309540D01*
X315455Y310645D01*
X316560Y312299D01*
X316948Y314250D01*
Y314412D01*
X323201D01*
X323686Y313686D01*
X325092Y312747D01*
X326750Y312417D01*
X331750D01*
X333408Y312747D01*
X334814Y313686D01*
X335299Y314412D01*
X339413D01*
X341169Y314761D01*
X342658Y315756D01*
X370158Y343256D01*
X371152Y344744D01*
X371502Y346500D01*
Y376438D01*
X372402Y377338D01*
X373455Y379162D01*
X374000Y381197D01*
Y383303D01*
X373455Y385338D01*
X372402Y387162D01*
X370912Y388652D01*
X369088Y389705D01*
X367053Y390250D01*
D02*
G37*
G36*
X353500Y285113D02*
X352750D01*
Y278750D01*
X359363D01*
Y279250D01*
X358916Y281493D01*
X357645Y283396D01*
X355744Y284666D01*
X353500Y285113D01*
D02*
G37*
G36*
X349250D02*
X348500D01*
X346256Y284666D01*
X344355Y283396D01*
X343084Y281493D01*
X342637Y279250D01*
Y278750D01*
X349250D01*
Y285113D01*
D02*
G37*
G36*
X132250Y267363D02*
X131750D01*
X129507Y266916D01*
X127605Y265646D01*
X126334Y263743D01*
X125887Y261500D01*
Y260750D01*
X132250D01*
Y267363D01*
D02*
G37*
G36*
Y257250D02*
X125887D01*
Y256500D01*
X126334Y254256D01*
X127605Y252354D01*
X129507Y251084D01*
X131750Y250637D01*
X132250D01*
Y257250D01*
D02*
G37*
G36*
X45250Y234560D02*
X41750D01*
Y225750D01*
X52310D01*
Y227500D01*
X52070Y229327D01*
X51364Y231030D01*
X50242Y232492D01*
X48780Y233614D01*
X47077Y234320D01*
X45250Y234560D01*
D02*
G37*
G36*
X38250D02*
X34750D01*
X32923Y234320D01*
X31220Y233614D01*
X29757Y232492D01*
X28635Y231030D01*
X27930Y229327D01*
X27690Y227500D01*
Y225750D01*
X38250D01*
Y234560D01*
D02*
G37*
G36*
X58750Y229260D02*
X58354Y229181D01*
X56535Y227965D01*
X55319Y226146D01*
X54892Y224000D01*
Y220750D01*
X58750D01*
Y229260D01*
D02*
G37*
G36*
X132250Y221363D02*
X131750D01*
X129507Y220916D01*
X127605Y219646D01*
X126334Y217744D01*
X125887Y215500D01*
Y214750D01*
X132250D01*
Y221363D01*
D02*
G37*
G36*
X52310Y222250D02*
X41750D01*
Y213440D01*
X45250D01*
X47077Y213680D01*
X48780Y214386D01*
X50242Y215508D01*
X51364Y216970D01*
X52070Y218673D01*
X52310Y220500D01*
Y222250D01*
D02*
G37*
G36*
X38250D02*
X27690D01*
Y220500D01*
X27930Y218673D01*
X28635Y216970D01*
X29757Y215508D01*
X31220Y214386D01*
X32923Y213680D01*
X34750Y213440D01*
X38250D01*
Y222250D01*
D02*
G37*
G36*
X58750Y217250D02*
X54892D01*
Y214000D01*
X55319Y211854D01*
X56535Y210035D01*
X58354Y208819D01*
X58750Y208740D01*
Y217250D01*
D02*
G37*
G36*
X132250Y211250D02*
X125887D01*
Y210500D01*
X126334Y208256D01*
X127605Y206355D01*
X129507Y205084D01*
X131750Y204637D01*
X132250D01*
Y211250D01*
D02*
G37*
G36*
X399540Y207040D02*
X390250D01*
Y197750D01*
X399540D01*
Y207040D01*
D02*
G37*
G36*
X386750D02*
X377460D01*
Y197750D01*
X386750D01*
Y207040D01*
D02*
G37*
G36*
X62250Y229260D02*
Y219000D01*
Y208740D01*
X62646Y208819D01*
X64465Y210035D01*
X64857Y210621D01*
X65439Y210232D01*
X67000Y209922D01*
X68561Y210232D01*
X69334Y210749D01*
X70250Y211011D01*
X71166Y210749D01*
X71939Y210232D01*
X73500Y209922D01*
X73883Y209998D01*
X74068Y210035D01*
X74506Y208916D01*
X74274Y208761D01*
X72604Y207646D01*
X71334Y205744D01*
X70887Y203500D01*
Y202750D01*
X79000D01*
X87113D01*
Y203500D01*
X86666Y205744D01*
X85395Y207646D01*
X83494Y208916D01*
X82227Y209168D01*
X81980Y210512D01*
X82884Y211116D01*
X83768Y212439D01*
X84059Y213902D01*
X85888D01*
X89902Y209888D01*
Y206709D01*
X89686Y206564D01*
X88747Y205158D01*
X88417Y203500D01*
Y198500D01*
X88747Y196842D01*
X89686Y195436D01*
X91092Y194497D01*
X92750Y194167D01*
X97250D01*
X98908Y194497D01*
X100314Y195436D01*
X101253Y196842D01*
X101583Y198500D01*
Y203500D01*
X101253Y205158D01*
X100314Y206564D01*
X100098Y206709D01*
Y212000D01*
X99710Y213951D01*
X98605Y215605D01*
X91605Y222605D01*
X89951Y223710D01*
X88000Y224098D01*
X84059D01*
X83768Y225561D01*
X82884Y226884D01*
X81561Y227768D01*
X80000Y228078D01*
X78439Y227768D01*
X77116Y226884D01*
X76384D01*
X75061Y227768D01*
X73500Y228078D01*
X71939Y227768D01*
X71166Y227251D01*
X70250Y226989D01*
X69334Y227251D01*
X68561Y227768D01*
X67000Y228078D01*
X65439Y227768D01*
X64857Y227379D01*
X64465Y227965D01*
X62646Y229181D01*
X62250Y229260D01*
D02*
G37*
G36*
X87113Y199250D02*
X80750D01*
Y192637D01*
X81250D01*
X83494Y193084D01*
X85395Y194354D01*
X86666Y196257D01*
X87113Y198500D01*
Y199250D01*
D02*
G37*
G36*
X77250D02*
X70887D01*
Y198500D01*
X71334Y196257D01*
X72604Y194354D01*
X74507Y193084D01*
X76750Y192637D01*
X77250D01*
Y199250D01*
D02*
G37*
G36*
X197250Y188113D02*
X196500D01*
X194256Y187666D01*
X192355Y186395D01*
X192135Y186067D01*
X190865D01*
X190646Y186395D01*
X188743Y187666D01*
X186500Y188113D01*
X185750D01*
Y180000D01*
Y171887D01*
X186500D01*
X188743Y172334D01*
X190646Y173605D01*
X190865Y173933D01*
X192135D01*
X192355Y173605D01*
X194256Y172334D01*
X196500Y171887D01*
X197250D01*
Y180000D01*
Y188113D01*
D02*
G37*
G36*
X399540Y194250D02*
X390250D01*
Y184960D01*
X399540D01*
Y194250D01*
D02*
G37*
G36*
X386750D02*
X377460D01*
Y184960D01*
X386750D01*
Y194250D01*
D02*
G37*
G36*
X42750Y191961D02*
Y182750D01*
X51961D01*
X51288Y185261D01*
X49834Y187779D01*
X47779Y189834D01*
X45261Y191288D01*
X42750Y191961D01*
D02*
G37*
G36*
X39250D02*
X36739Y191288D01*
X34221Y189834D01*
X32166Y187779D01*
X30712Y185261D01*
X30040Y182750D01*
X39250D01*
Y191961D01*
D02*
G37*
G36*
X201500Y188113D02*
X200750D01*
Y181750D01*
X207363D01*
Y182250D01*
X206916Y184494D01*
X205646Y186395D01*
X203743Y187666D01*
X201500Y188113D01*
D02*
G37*
G36*
X182250Y188113D02*
X181500D01*
X179256Y187666D01*
X177355Y186395D01*
X176084Y184494D01*
X175637Y182250D01*
Y181750D01*
X182250D01*
Y188113D01*
D02*
G37*
G36*
X207363Y178250D02*
X200750D01*
Y171887D01*
X201500D01*
X203743Y172334D01*
X205646Y173605D01*
X206916Y175506D01*
X207363Y177750D01*
Y178250D01*
D02*
G37*
G36*
X182250Y178250D02*
X175637D01*
Y177750D01*
X176084Y175506D01*
X177355Y173605D01*
X179256Y172334D01*
X181500Y171887D01*
X182250D01*
Y178250D01*
D02*
G37*
G36*
X51961Y179250D02*
X42750D01*
Y170040D01*
X45261Y170712D01*
X47779Y172166D01*
X49834Y174221D01*
X51288Y176739D01*
X51961Y179250D01*
D02*
G37*
G36*
X39250D02*
X30040D01*
X30712Y176739D01*
X32166Y174221D01*
X34221Y172166D01*
X36739Y170712D01*
X39250Y170040D01*
Y179250D01*
D02*
G37*
G36*
X397250Y163365D02*
X396375D01*
X394083Y162909D01*
X392139Y161611D01*
X391362Y160447D01*
X389834D01*
X389779Y160529D01*
X388332Y161496D01*
X386625Y161836D01*
X381375D01*
X379668Y161496D01*
X378221Y160529D01*
X377592Y159588D01*
X375049D01*
X374564Y160314D01*
X373158Y161253D01*
X371500Y161583D01*
X366500D01*
X364842Y161253D01*
X363436Y160314D01*
X362497Y158908D01*
X362167Y157250D01*
Y152750D01*
X362497Y151092D01*
X363436Y149686D01*
X364842Y148747D01*
X366500Y148417D01*
X371500D01*
X373158Y148747D01*
X374564Y149686D01*
X375049Y150412D01*
X377592D01*
X378221Y149471D01*
X379668Y148504D01*
X381375Y148164D01*
X386625D01*
X388332Y148504D01*
X389779Y149471D01*
X389834Y149553D01*
X391362D01*
X392139Y148389D01*
X394083Y147091D01*
X396375Y146635D01*
X397250D01*
Y155000D01*
Y163365D01*
D02*
G37*
G36*
X401625D02*
X400750D01*
Y156750D01*
X407615D01*
Y157375D01*
X407159Y159667D01*
X405861Y161611D01*
X403917Y162909D01*
X401625Y163365D01*
D02*
G37*
G36*
X407615Y153250D02*
X400750D01*
Y146635D01*
X401625D01*
X403917Y147091D01*
X405861Y148389D01*
X407159Y150333D01*
X407615Y152625D01*
Y153250D01*
D02*
G37*
G36*
X217000Y114500D02*
X207710D01*
Y105210D01*
X217000D01*
Y114500D01*
D02*
G37*
G36*
X613750Y59960D02*
Y50750D01*
X622961D01*
X622288Y53261D01*
X620834Y55779D01*
X618779Y57834D01*
X616261Y59288D01*
X613750Y59960D01*
D02*
G37*
G36*
X610250D02*
X607739Y59288D01*
X605221Y57834D01*
X603166Y55779D01*
X601712Y53261D01*
X601039Y50750D01*
X610250D01*
Y59960D01*
D02*
G37*
G36*
X438750D02*
Y50750D01*
X447961D01*
X447288Y53261D01*
X445834Y55779D01*
X443779Y57834D01*
X441261Y59288D01*
X438750Y59960D01*
D02*
G37*
G36*
X435250D02*
X432739Y59288D01*
X430221Y57834D01*
X428166Y55779D01*
X426712Y53261D01*
X426040Y50750D01*
X435250D01*
Y59960D01*
D02*
G37*
G36*
X588256Y58540D02*
X585744D01*
X583318Y57890D01*
X581142Y56634D01*
X579366Y54858D01*
X578110Y52682D01*
X577460Y50256D01*
Y47744D01*
X578110Y45318D01*
X579366Y43142D01*
X581142Y41366D01*
X583318Y40110D01*
X585744Y39460D01*
X588256D01*
X590682Y40110D01*
X592858Y41366D01*
X594634Y43142D01*
X595890Y45318D01*
X596540Y47744D01*
Y50256D01*
X595890Y52682D01*
X594634Y54858D01*
X592858Y56634D01*
X590682Y57890D01*
X588256Y58540D01*
D02*
G37*
G36*
X513256D02*
X510744D01*
X508318Y57890D01*
X506142Y56634D01*
X504366Y54858D01*
X503110Y52682D01*
X502460Y50256D01*
Y47744D01*
X503110Y45318D01*
X504366Y43142D01*
X506142Y41366D01*
X508318Y40110D01*
X510744Y39460D01*
X513256D01*
X515682Y40110D01*
X517858Y41366D01*
X519634Y43142D01*
X520890Y45318D01*
X521540Y47744D01*
Y50256D01*
X520890Y52682D01*
X519634Y54858D01*
X517858Y56634D01*
X515682Y57890D01*
X513256Y58540D01*
D02*
G37*
G36*
X488256D02*
X485744D01*
X483318Y57890D01*
X481142Y56634D01*
X479366Y54858D01*
X478110Y52682D01*
X477460Y50256D01*
Y47744D01*
X478110Y45318D01*
X479366Y43142D01*
X481142Y41366D01*
X483318Y40110D01*
X485744Y39460D01*
X488256D01*
X490682Y40110D01*
X492858Y41366D01*
X494634Y43142D01*
X495890Y45318D01*
X496540Y47744D01*
Y50256D01*
X495890Y52682D01*
X494634Y54858D01*
X492858Y56634D01*
X490682Y57890D01*
X488256Y58540D01*
D02*
G37*
G36*
X463256D02*
X460744D01*
X458318Y57890D01*
X456142Y56634D01*
X454366Y54858D01*
X453110Y52682D01*
X452460Y50256D01*
Y47744D01*
X453110Y45318D01*
X454366Y43142D01*
X456142Y41366D01*
X458318Y40110D01*
X460744Y39460D01*
X463256D01*
X465682Y40110D01*
X467858Y41366D01*
X469634Y43142D01*
X470890Y45318D01*
X471540Y47744D01*
Y50256D01*
X470890Y52682D01*
X469634Y54858D01*
X467858Y56634D01*
X465682Y57890D01*
X463256Y58540D01*
D02*
G37*
G36*
X413256D02*
X410744D01*
X408318Y57890D01*
X406142Y56634D01*
X404366Y54858D01*
X403110Y52682D01*
X402460Y50256D01*
Y47744D01*
X403110Y45318D01*
X404366Y43142D01*
X406142Y41366D01*
X408318Y40110D01*
X410744Y39460D01*
X413256D01*
X415682Y40110D01*
X417858Y41366D01*
X419634Y43142D01*
X420890Y45318D01*
X421540Y47744D01*
Y50256D01*
X420890Y52682D01*
X419634Y54858D01*
X417858Y56634D01*
X415682Y57890D01*
X413256Y58540D01*
D02*
G37*
G36*
X388256D02*
X385744D01*
X383318Y57890D01*
X381142Y56634D01*
X379366Y54858D01*
X378110Y52682D01*
X377460Y50256D01*
Y47744D01*
X378110Y45318D01*
X379366Y43142D01*
X381142Y41366D01*
X383318Y40110D01*
X385744Y39460D01*
X388256D01*
X390682Y40110D01*
X392858Y41366D01*
X394634Y43142D01*
X395890Y45318D01*
X396540Y47744D01*
Y50256D01*
X395890Y52682D01*
X394634Y54858D01*
X392858Y56634D01*
X390682Y57890D01*
X388256Y58540D01*
D02*
G37*
G36*
X363256D02*
X360744D01*
X358318Y57890D01*
X356142Y56634D01*
X354366Y54858D01*
X353110Y52682D01*
X352460Y50256D01*
Y47744D01*
X353110Y45318D01*
X354366Y43142D01*
X356142Y41366D01*
X358318Y40110D01*
X360744Y39460D01*
X363256D01*
X365682Y40110D01*
X367858Y41366D01*
X369634Y43142D01*
X370890Y45318D01*
X371540Y47744D01*
Y50256D01*
X370890Y52682D01*
X369634Y54858D01*
X367858Y56634D01*
X365682Y57890D01*
X363256Y58540D01*
D02*
G37*
G36*
X338256D02*
X335744D01*
X333318Y57890D01*
X331142Y56634D01*
X329366Y54858D01*
X328110Y52682D01*
X327460Y50256D01*
Y47744D01*
X328110Y45318D01*
X329366Y43142D01*
X331142Y41366D01*
X333318Y40110D01*
X335744Y39460D01*
X338256D01*
X340682Y40110D01*
X342858Y41366D01*
X344634Y43142D01*
X345890Y45318D01*
X346540Y47744D01*
Y50256D01*
X345890Y52682D01*
X344634Y54858D01*
X342858Y56634D01*
X340682Y57890D01*
X338256Y58540D01*
D02*
G37*
G36*
X138256D02*
X135744D01*
X133318Y57890D01*
X131142Y56634D01*
X129366Y54858D01*
X128110Y52682D01*
X127460Y50256D01*
Y47744D01*
X128110Y45318D01*
X129366Y43142D01*
X131142Y41366D01*
X133318Y40110D01*
X135744Y39460D01*
X138256D01*
X140682Y40110D01*
X142858Y41366D01*
X144634Y43142D01*
X145890Y45318D01*
X146540Y47744D01*
Y50256D01*
X145890Y52682D01*
X144634Y54858D01*
X142858Y56634D01*
X140682Y57890D01*
X138256Y58540D01*
D02*
G37*
G36*
X563256Y58540D02*
X560744D01*
X558318Y57890D01*
X556142Y56634D01*
X554366Y54858D01*
X553110Y52682D01*
X552460Y50256D01*
Y47744D01*
X553110Y45318D01*
X554366Y43142D01*
X556142Y41366D01*
X558318Y40110D01*
X560744Y39460D01*
X563256D01*
X565682Y40110D01*
X567858Y41366D01*
X569634Y43142D01*
X570890Y45318D01*
X571540Y47744D01*
Y50256D01*
X570890Y52682D01*
X569634Y54858D01*
X567858Y56634D01*
X565682Y57890D01*
X563256Y58540D01*
D02*
G37*
G36*
X538256D02*
X535744D01*
X533318Y57890D01*
X531142Y56634D01*
X529366Y54858D01*
X528110Y52682D01*
X527460Y50256D01*
Y47744D01*
X528110Y45318D01*
X529366Y43142D01*
X531142Y41366D01*
X533318Y40110D01*
X535744Y39460D01*
X538256D01*
X540682Y40110D01*
X542858Y41366D01*
X544634Y43142D01*
X545890Y45318D01*
X546540Y47744D01*
Y50256D01*
X545890Y52682D01*
X544634Y54858D01*
X542858Y56634D01*
X540682Y57890D01*
X538256Y58540D01*
D02*
G37*
G36*
X163256D02*
X160744D01*
X158318Y57890D01*
X156142Y56634D01*
X154366Y54858D01*
X153110Y52682D01*
X152460Y50256D01*
Y47744D01*
X153110Y45318D01*
X154366Y43142D01*
X156142Y41366D01*
X158318Y40110D01*
X160744Y39460D01*
X163256D01*
X165682Y40110D01*
X167858Y41366D01*
X169634Y43142D01*
X170890Y45318D01*
X171540Y47744D01*
Y50256D01*
X170890Y52682D01*
X169634Y54858D01*
X167858Y56634D01*
X165682Y57890D01*
X163256Y58540D01*
D02*
G37*
G36*
X622961Y47250D02*
X613750D01*
Y38039D01*
X616261Y38712D01*
X618779Y40166D01*
X620834Y42221D01*
X622288Y44739D01*
X622961Y47250D01*
D02*
G37*
G36*
X610250D02*
X601039D01*
X601712Y44739D01*
X603166Y42221D01*
X605221Y40166D01*
X607739Y38712D01*
X610250Y38039D01*
Y47250D01*
D02*
G37*
G36*
X447961D02*
X438750D01*
Y38039D01*
X441261Y38712D01*
X443779Y40166D01*
X445834Y42221D01*
X447288Y44739D01*
X447961Y47250D01*
D02*
G37*
G36*
X435250D02*
X426040D01*
X426712Y44739D01*
X428166Y42221D01*
X430221Y40166D01*
X432739Y38712D01*
X435250Y38039D01*
Y47250D01*
D02*
G37*
G36*
X658250Y61000D02*
X657560D01*
X652741Y60237D01*
X648100Y58729D01*
X643753Y56514D01*
X639805Y53646D01*
X636354Y50195D01*
X633486Y46248D01*
X631271Y41900D01*
X629763Y37259D01*
X629000Y32440D01*
Y31750D01*
X658250D01*
Y61000D01*
D02*
G37*
G36*
X32440D02*
X31750D01*
Y31750D01*
X61000D01*
Y32440D01*
X60237Y37259D01*
X58729Y41900D01*
X56514Y46248D01*
X53646Y50195D01*
X50195Y53646D01*
X46248Y56514D01*
X41900Y58729D01*
X37259Y60237D01*
X32440Y61000D01*
D02*
G37*
G36*
X538750Y34961D02*
Y25750D01*
X547961D01*
X547288Y28261D01*
X545834Y30779D01*
X543779Y32834D01*
X541261Y34288D01*
X538750Y34961D01*
D02*
G37*
G36*
X535250D02*
X532739Y34288D01*
X530221Y32834D01*
X528166Y30779D01*
X526712Y28261D01*
X526040Y25750D01*
X535250D01*
Y34961D01*
D02*
G37*
G36*
X488750Y34960D02*
Y25750D01*
X497961D01*
X497288Y28261D01*
X495834Y30779D01*
X493779Y32834D01*
X491261Y34288D01*
X488750Y34960D01*
D02*
G37*
G36*
X485250D02*
X482739Y34288D01*
X480221Y32834D01*
X478166Y30779D01*
X476712Y28261D01*
X476040Y25750D01*
X485250D01*
Y34960D01*
D02*
G37*
G36*
X363750D02*
Y25750D01*
X372961D01*
X372288Y28261D01*
X370834Y30779D01*
X368779Y32834D01*
X366261Y34288D01*
X363750Y34960D01*
D02*
G37*
G36*
X360250D02*
X357739Y34288D01*
X355221Y32834D01*
X353166Y30779D01*
X351712Y28261D01*
X351040Y25750D01*
X360250D01*
Y34960D01*
D02*
G37*
G36*
X185250D02*
X182739Y34288D01*
X180221Y32834D01*
X178166Y30779D01*
X176712Y28261D01*
X176040Y25750D01*
X185250D01*
Y34960D01*
D02*
G37*
G36*
X613256Y33540D02*
X610744D01*
X608318Y32890D01*
X606142Y31634D01*
X604366Y29858D01*
X603110Y27682D01*
X602460Y25256D01*
Y22744D01*
X603110Y20318D01*
X604366Y18142D01*
X606142Y16366D01*
X608318Y15110D01*
X610744Y14460D01*
X613256D01*
X615682Y15110D01*
X617858Y16366D01*
X619634Y18142D01*
X620890Y20318D01*
X621540Y22744D01*
Y25256D01*
X620890Y27682D01*
X619634Y29858D01*
X617858Y31634D01*
X615682Y32890D01*
X613256Y33540D01*
D02*
G37*
G36*
X588256D02*
X585744D01*
X583318Y32890D01*
X581142Y31634D01*
X579366Y29858D01*
X578110Y27682D01*
X577460Y25256D01*
Y22744D01*
X578110Y20318D01*
X579366Y18142D01*
X581142Y16366D01*
X583318Y15110D01*
X585744Y14460D01*
X588256D01*
X590682Y15110D01*
X592858Y16366D01*
X594634Y18142D01*
X595890Y20318D01*
X596540Y22744D01*
Y25256D01*
X595890Y27682D01*
X594634Y29858D01*
X592858Y31634D01*
X590682Y32890D01*
X588256Y33540D01*
D02*
G37*
G36*
X563256D02*
X560744D01*
X558318Y32890D01*
X556142Y31634D01*
X554366Y29858D01*
X553110Y27682D01*
X552460Y25256D01*
Y22744D01*
X553110Y20318D01*
X554366Y18142D01*
X556142Y16366D01*
X558318Y15110D01*
X560744Y14460D01*
X563256D01*
X565682Y15110D01*
X567858Y16366D01*
X569634Y18142D01*
X570890Y20318D01*
X571540Y22744D01*
Y25256D01*
X570890Y27682D01*
X569634Y29858D01*
X567858Y31634D01*
X565682Y32890D01*
X563256Y33540D01*
D02*
G37*
G36*
X513256D02*
X510744D01*
X508318Y32890D01*
X506142Y31634D01*
X504366Y29858D01*
X503110Y27682D01*
X502460Y25256D01*
Y22744D01*
X503110Y20318D01*
X504366Y18142D01*
X506142Y16366D01*
X508318Y15110D01*
X510744Y14460D01*
X513256D01*
X515682Y15110D01*
X517858Y16366D01*
X519634Y18142D01*
X520890Y20318D01*
X521540Y22744D01*
Y25256D01*
X520890Y27682D01*
X519634Y29858D01*
X517858Y31634D01*
X515682Y32890D01*
X513256Y33540D01*
D02*
G37*
G36*
X463256D02*
X460744D01*
X458318Y32890D01*
X456142Y31634D01*
X454366Y29858D01*
X453110Y27682D01*
X452460Y25256D01*
Y22744D01*
X453110Y20318D01*
X454366Y18142D01*
X456142Y16366D01*
X458318Y15110D01*
X460744Y14460D01*
X463256D01*
X465682Y15110D01*
X467858Y16366D01*
X469634Y18142D01*
X470890Y20318D01*
X471540Y22744D01*
Y25256D01*
X470890Y27682D01*
X469634Y29858D01*
X467858Y31634D01*
X465682Y32890D01*
X463256Y33540D01*
D02*
G37*
G36*
X413256D02*
X410744D01*
X408318Y32890D01*
X406142Y31634D01*
X404366Y29858D01*
X403110Y27682D01*
X402460Y25256D01*
Y22744D01*
X403110Y20318D01*
X404366Y18142D01*
X406142Y16366D01*
X408318Y15110D01*
X410744Y14460D01*
X413256D01*
X415682Y15110D01*
X417858Y16366D01*
X419634Y18142D01*
X420890Y20318D01*
X421540Y22744D01*
Y25256D01*
X420890Y27682D01*
X419634Y29858D01*
X417858Y31634D01*
X415682Y32890D01*
X413256Y33540D01*
D02*
G37*
G36*
X388256D02*
X385744D01*
X383318Y32890D01*
X381142Y31634D01*
X379366Y29858D01*
X378110Y27682D01*
X377460Y25256D01*
Y22744D01*
X378110Y20318D01*
X379366Y18142D01*
X381142Y16366D01*
X383318Y15110D01*
X385744Y14460D01*
X388256D01*
X390682Y15110D01*
X392858Y16366D01*
X394634Y18142D01*
X395890Y20318D01*
X396540Y22744D01*
Y25256D01*
X395890Y27682D01*
X394634Y29858D01*
X392858Y31634D01*
X390682Y32890D01*
X388256Y33540D01*
D02*
G37*
G36*
X338256D02*
X335744D01*
X333318Y32890D01*
X331142Y31634D01*
X329366Y29858D01*
X328110Y27682D01*
X327460Y25256D01*
Y22744D01*
X328110Y20318D01*
X329366Y18142D01*
X331142Y16366D01*
X333318Y15110D01*
X335744Y14460D01*
X338256D01*
X340682Y15110D01*
X342858Y16366D01*
X344634Y18142D01*
X345890Y20318D01*
X346540Y22744D01*
Y25256D01*
X345890Y27682D01*
X344634Y29858D01*
X342858Y31634D01*
X340682Y32890D01*
X338256Y33540D01*
D02*
G37*
G36*
X163256D02*
X160744D01*
X158318Y32890D01*
X156142Y31634D01*
X154366Y29858D01*
X153110Y27682D01*
X152460Y25256D01*
Y22744D01*
X153110Y20318D01*
X154366Y18142D01*
X156142Y16366D01*
X158318Y15110D01*
X160744Y14460D01*
X163256D01*
X165682Y15110D01*
X167858Y16366D01*
X169634Y18142D01*
X170890Y20318D01*
X171540Y22744D01*
Y25256D01*
X170890Y27682D01*
X169634Y29858D01*
X167858Y31634D01*
X165682Y32890D01*
X163256Y33540D01*
D02*
G37*
G36*
X547961Y22250D02*
X538750D01*
Y13039D01*
X541261Y13712D01*
X543779Y15166D01*
X545834Y17221D01*
X547288Y19739D01*
X547961Y22250D01*
D02*
G37*
G36*
X535250D02*
X526040D01*
X526712Y19739D01*
X528166Y17221D01*
X530221Y15166D01*
X532739Y13712D01*
X535250Y13039D01*
Y22250D01*
D02*
G37*
G36*
X497961Y22250D02*
X488750D01*
Y13039D01*
X491261Y13712D01*
X493779Y15166D01*
X495834Y17221D01*
X497288Y19739D01*
X497961Y22250D01*
D02*
G37*
G36*
X485250D02*
X476040D01*
X476712Y19739D01*
X478166Y17221D01*
X480221Y15166D01*
X482739Y13712D01*
X485250Y13039D01*
Y22250D01*
D02*
G37*
G36*
X372961D02*
X363750D01*
Y13039D01*
X366261Y13712D01*
X368779Y15166D01*
X370834Y17221D01*
X372288Y19739D01*
X372961Y22250D01*
D02*
G37*
G36*
X360250D02*
X351040D01*
X351712Y19739D01*
X353166Y17221D01*
X355221Y15166D01*
X357739Y13712D01*
X360250Y13039D01*
Y22250D01*
D02*
G37*
G36*
X185250D02*
X176040D01*
X176712Y19739D01*
X178166Y17221D01*
X180221Y15166D01*
X182739Y13712D01*
X185250Y13039D01*
Y22250D01*
D02*
G37*
G36*
X324500Y151613D02*
X323750D01*
Y145250D01*
X330363D01*
Y145750D01*
X329916Y147994D01*
X328646Y149896D01*
X326744Y151166D01*
X324500Y151613D01*
D02*
G37*
G36*
X320250D02*
X319500D01*
X317256Y151166D01*
X315354Y149896D01*
X314084Y147994D01*
X313637Y145750D01*
Y145250D01*
X320250D01*
Y151613D01*
D02*
G37*
G36*
X330363Y141750D02*
X323750D01*
Y135387D01*
X324500D01*
X326744Y135834D01*
X328646Y137105D01*
X329916Y139007D01*
X330363Y141250D01*
Y141750D01*
D02*
G37*
G36*
X320250D02*
X313637D01*
Y141250D01*
X314084Y139007D01*
X315354Y137105D01*
X317256Y135834D01*
X319500Y135387D01*
X320250D01*
Y141750D01*
D02*
G37*
%LPD*%
D10*
X208000Y292000D02*
D03*
X183000D02*
D03*
D11*
X446000Y345250D02*
D03*
X430000D02*
D03*
X150000Y259000D02*
D03*
X134000D02*
D03*
Y213000D02*
D03*
X150000D02*
D03*
X79000Y201000D02*
D03*
X95000Y201000D02*
D03*
D12*
X329250Y335000D02*
D03*
Y319000D02*
D03*
X351000Y277000D02*
D03*
Y261000D02*
D03*
X322000Y159500D02*
D03*
Y143500D02*
D03*
X369000Y171000D02*
D03*
Y155000D02*
D03*
X199000Y196000D02*
D03*
Y180000D02*
D03*
X184000Y196000D02*
D03*
Y180000D02*
D03*
X258000Y372250D02*
D03*
Y356250D02*
D03*
X243000Y335000D02*
D03*
Y319000D02*
D03*
X228000Y335000D02*
D03*
Y319000D02*
D03*
X208000Y327000D02*
D03*
Y311000D02*
D03*
X183000Y327000D02*
D03*
Y311000D02*
D03*
D13*
X399000Y155000D02*
D03*
X384000D02*
D03*
D14*
X176000Y256000D02*
D03*
Y216000D02*
D03*
D15*
X311850Y373000D02*
D03*
X299150D02*
D03*
X286450D02*
D03*
X273750D02*
D03*
X311850Y319000D02*
D03*
X299150D02*
D03*
X286450D02*
D03*
X273750D02*
D03*
D16*
X104625Y343625D02*
D03*
X131625Y343625D02*
D03*
D17*
X67000Y264000D02*
D03*
X60500D02*
D03*
X73500D02*
D03*
X80000D02*
D03*
X73500Y219000D02*
D03*
X60500D02*
D03*
X67000D02*
D03*
X80000D02*
D03*
D18*
X104625Y303625D02*
D03*
X57625D02*
D03*
D19*
X40000Y224000D02*
D03*
X40000Y251000D02*
D03*
D20*
X234000Y261000D02*
D03*
Y256000D02*
D03*
Y251000D02*
D03*
Y246000D02*
D03*
Y241000D02*
D03*
Y236000D02*
D03*
Y231000D02*
D03*
Y226000D02*
D03*
Y221000D02*
D03*
Y216000D02*
D03*
Y211000D02*
D03*
Y206000D02*
D03*
X318500D02*
D03*
Y211000D02*
D03*
Y216000D02*
D03*
Y221000D02*
D03*
Y226000D02*
D03*
Y231000D02*
D03*
Y236000D02*
D03*
Y241000D02*
D03*
Y246000D02*
D03*
Y251000D02*
D03*
Y256000D02*
D03*
Y261000D02*
D03*
D21*
X248750Y191250D02*
D03*
X253750D02*
D03*
X258750D02*
D03*
X263750D02*
D03*
X268750D02*
D03*
X273750D02*
D03*
X278750D02*
D03*
X283750D02*
D03*
X288750D02*
D03*
X293750D02*
D03*
X298750D02*
D03*
X303750D02*
D03*
Y275750D02*
D03*
X298750D02*
D03*
X293750D02*
D03*
X288750D02*
D03*
X283750D02*
D03*
X278750D02*
D03*
X273750D02*
D03*
X268750D02*
D03*
X263750D02*
D03*
X258750D02*
D03*
X253750D02*
D03*
X248750D02*
D03*
D22*
X60000Y251000D02*
X76078D01*
X40000D02*
X60000D01*
X60500Y251500D02*
Y264000D01*
X60000Y251000D02*
X60500Y251500D01*
X80000Y254922D02*
Y264000D01*
X76078Y251000D02*
X80000Y254922D01*
X21000Y245000D02*
X27000Y251000D01*
X21000Y117000D02*
Y245000D01*
X27000Y251000D02*
X40000D01*
X67000Y264000D02*
Y269000D01*
X66500Y269500D02*
X67000Y269000D01*
X61017Y276968D02*
X66500Y271485D01*
Y269500D02*
Y271485D01*
X61017Y276968D02*
Y300233D01*
X57625Y303625D02*
X61017Y300233D01*
X80000Y219000D02*
X88000D01*
X95000Y212000D01*
Y201000D02*
Y212000D01*
X21000Y117000D02*
X29803Y108197D01*
X38803D01*
X41000Y106000D01*
X221881Y94381D02*
X243750Y116250D01*
X201619Y94381D02*
X221881D01*
X188000Y108000D02*
X201619Y94381D01*
X41000Y108000D02*
X188000D01*
X41000Y96000D02*
Y106000D01*
Y96000D02*
X113000Y24000D01*
X137000D01*
D23*
X43000Y158000D02*
X243616D01*
X41000Y156000D02*
X43000Y158000D01*
X258750Y173134D02*
Y191250D01*
X243616Y158000D02*
X258750Y173134D01*
X43000Y133000D02*
X247039D01*
X41000Y131000D02*
X43000Y133000D01*
X263750Y149711D02*
Y191250D01*
X247039Y133000D02*
X263750Y149711D01*
X106000Y305000D02*
X142000D01*
X104625Y303625D02*
X106000Y305000D01*
X148118D02*
X162118Y319000D01*
X142000Y305000D02*
X148118D01*
X142000Y205000D02*
Y305000D01*
Y205000D02*
X151375Y195625D01*
X298750Y172250D02*
X299000Y172000D01*
X322000Y159500D02*
Y164000D01*
X303750Y182250D02*
X322000Y164000D01*
X303750Y182250D02*
Y191250D01*
X298750Y172250D02*
Y191250D01*
X303750D02*
Y254892D01*
X329250Y319000D02*
X339413D01*
X311850D02*
X329250D01*
X311850D02*
X311925Y318925D01*
X303750Y254892D02*
X309858Y261000D01*
X318500D01*
X366000Y382250D02*
X366913Y381336D01*
Y346500D02*
Y381336D01*
X339413Y319000D02*
X366913Y346500D01*
X308750Y249590D02*
Y252821D01*
X311929Y256000D01*
X318500D01*
X216000Y221000D02*
X234000D01*
X199000Y196000D02*
Y204000D01*
X216000Y221000D01*
X271000Y231000D02*
X309000Y269000D01*
X366000D01*
X234000Y231000D02*
X271000D01*
X298750Y191250D02*
Y204000D01*
X261750Y304115D02*
Y342750D01*
X258000Y346500D02*
X261750Y342750D01*
X258000Y346500D02*
Y356250D01*
X261750Y304115D02*
X268750Y297115D01*
Y275750D02*
Y297115D01*
X318500Y261000D02*
X351000D01*
X234000Y226000D02*
X278000D01*
X253750Y275750D02*
Y287750D01*
X465750Y398250D02*
X476500Y387500D01*
Y339500D02*
Y387500D01*
X395409Y258409D02*
X476500Y339500D01*
X438250Y398250D02*
X465750D01*
X427722Y387722D02*
X438250Y398250D01*
X427722Y383972D02*
Y387722D01*
X426000Y382250D02*
X427722Y383972D01*
X446000Y382250D02*
X446000D01*
Y345250D02*
Y382250D01*
X392500Y283750D02*
X446000Y337250D01*
X380750Y283750D02*
X392500D01*
X366000Y269000D02*
X380750Y283750D01*
X446000Y337250D02*
Y345250D01*
X378500Y261000D02*
X388500Y271000D01*
X386000Y347000D02*
Y382250D01*
X386000Y382250D01*
X335000Y296000D02*
X386000Y347000D01*
X313000Y296000D02*
X335000D01*
X303750Y286750D02*
X313000Y296000D01*
X303750Y275750D02*
Y286750D01*
X384280Y258409D02*
X395409D01*
X376871Y251000D02*
X384280Y258409D01*
X318500Y251000D02*
X376871D01*
X299515Y62515D02*
X331009Y94010D01*
X299515Y18515D02*
Y62515D01*
X331009Y94010D02*
Y121753D01*
X292596Y11596D02*
X299515Y18515D01*
X224404Y11596D02*
X292596D01*
X228000Y319000D02*
X243000D01*
X212882D02*
X228000D01*
X212882Y319000D02*
X212882Y319000D01*
X243000Y307000D02*
Y319000D01*
Y307000D02*
X248750Y301250D01*
Y275750D02*
Y301250D01*
X162118Y319000D02*
X212882D01*
X228000Y302000D02*
Y319000D01*
Y302000D02*
X234000Y296000D01*
Y261000D02*
Y296000D01*
X151375Y195625D02*
X183625D01*
X173515Y213000D02*
X176257Y215743D01*
X150000Y213000D02*
X173515D01*
X173000Y259000D02*
X176000Y256000D01*
X150000Y259000D02*
X173000D01*
X351000Y261000D02*
X378500D01*
X351000Y261000D02*
X351000Y261000D01*
X281123Y110877D02*
X284270Y107730D01*
X288000Y104000D02*
X306500D01*
X284270Y107730D02*
X288000Y104000D01*
X249534Y72994D02*
X284270Y107730D01*
X306500Y104000D02*
X318750Y116250D01*
X249534Y36534D02*
Y72994D01*
X324302Y128461D02*
X331009Y121753D01*
X293750Y116250D02*
X305961Y128461D01*
X324302D01*
X268750Y134858D02*
Y191250D01*
X256248Y99248D02*
Y122356D01*
X268750Y134858D01*
X226000Y69000D02*
X256248Y99248D01*
X210000Y69000D02*
X226000D01*
X199711Y58711D02*
X210000Y69000D01*
X281123Y110877D02*
Y144607D01*
X199711Y18289D02*
Y58711D01*
Y18289D02*
X211404Y6596D01*
X419596D01*
X437000Y24000D01*
X212000D02*
X224404Y11596D01*
X183625Y195625D02*
X184000Y196000D01*
X237000Y24000D02*
X249534Y36534D01*
X281123Y144607D02*
X288750Y152233D01*
Y191250D01*
X293750Y116250D02*
Y191250D01*
X369000Y171000D02*
Y191000D01*
X344000Y216000D02*
X369000Y191000D01*
X318500Y216000D02*
X344000D01*
X369000Y155000D02*
X384000D01*
X384000Y155000D01*
X369000Y155000D02*
X369000Y155000D01*
X352000Y133000D02*
Y195000D01*
X318500Y211000D02*
X336000D01*
X343750Y116250D02*
Y195250D01*
X318500Y206000D02*
X333000D01*
X343750Y195250D01*
X336000Y211000D02*
X352000Y195000D01*
X268750Y119047D02*
X273750Y124047D01*
Y191250D01*
X268750Y116250D02*
Y119047D01*
X318500Y236000D02*
X378500D01*
X388500Y246000D01*
X378500Y231000D02*
X388500Y221000D01*
X318500Y231000D02*
X378500D01*
X184000Y196000D02*
X199000D01*
X352000Y133000D02*
X368750Y116250D01*
X219000Y251000D02*
X234000D01*
X208000Y262000D02*
X219000Y251000D01*
X208000Y262000D02*
Y292000D01*
X183000Y279929D02*
Y292000D01*
Y279929D02*
X216929Y246000D01*
X234000D01*
X286450Y299450D02*
Y319000D01*
X273750Y275750D02*
Y319000D01*
X278750Y291750D02*
X286450Y299450D01*
X278750Y275750D02*
Y291750D01*
X208000Y292000D02*
Y311000D01*
X183000Y292000D02*
X183000Y292000D01*
Y311000D01*
X183000Y311000D01*
X183000Y292000D02*
X183000Y292000D01*
X208000Y292000D02*
X208000Y292000D01*
X191000Y256000D02*
X206000Y241000D01*
X219750D01*
X176000Y256000D02*
X191000D01*
X219750Y241000D02*
X234000D01*
X219750Y241000D02*
X219750Y241000D01*
X176257Y215743D02*
X190743D01*
X211000Y236000D02*
X234000D01*
X190743Y215743D02*
X211000Y236000D01*
D24*
X104625Y343625D02*
X104812Y343812D01*
Y391813D01*
X105000Y392000D01*
X104625Y303625D02*
Y343625D01*
D25*
X660000Y30000D02*
D03*
Y390000D02*
D03*
X30000Y30000D02*
D03*
Y390000D02*
D03*
D26*
X41000Y131000D02*
D03*
Y156000D02*
D03*
Y181000D02*
D03*
X388500Y246000D02*
D03*
Y221000D02*
D03*
Y271000D02*
D03*
X212000Y24000D02*
D03*
X237000D02*
D03*
X162000D02*
D03*
X137000D02*
D03*
X187000D02*
D03*
X337000D02*
D03*
X312000D02*
D03*
X387000D02*
D03*
X362000D02*
D03*
X262000D02*
D03*
X287000Y49000D02*
D03*
Y24000D02*
D03*
X187000Y49000D02*
D03*
X162000D02*
D03*
X137000Y49000D02*
D03*
X212000D02*
D03*
X362000D02*
D03*
X337000D02*
D03*
X387000D02*
D03*
X262000D02*
D03*
X237000D02*
D03*
X312000D02*
D03*
X487000Y24000D02*
D03*
X437000D02*
D03*
X412000D02*
D03*
X462000D02*
D03*
X587000D02*
D03*
X562000D02*
D03*
X612000D02*
D03*
X512000D02*
D03*
X537000Y24000D02*
D03*
X612000Y49000D02*
D03*
X437000D02*
D03*
X487000Y49000D02*
D03*
X462000D02*
D03*
X412000D02*
D03*
X562000Y49000D02*
D03*
X537000D02*
D03*
X512000Y49000D02*
D03*
X587000D02*
D03*
X368750Y116250D02*
D03*
X293750Y116250D02*
D03*
X268750D02*
D03*
X343750D02*
D03*
X318750D02*
D03*
X243750Y116250D02*
D03*
D27*
X41000Y106000D02*
D03*
X388500Y196000D02*
D03*
D28*
X406000Y382250D02*
D03*
X426000D02*
D03*
X386000D02*
D03*
X466000D02*
D03*
X446000D02*
D03*
X366000D02*
D03*
D29*
X218750Y116250D02*
D03*
D30*
X130000Y392000D02*
D03*
D31*
X105000D02*
D03*
M02*
