G04*
G04 #@! TF.GenerationSoftware,Altium Limited,Altium Designer,24.1.2 (44)*
G04*
G04 Layer_Physical_Order=2*
G04 Layer_Color=16764057*
%FSLAX44Y44*%
%MOMM*%
G71*
G04*
G04 #@! TF.SameCoordinates,47F7E096-FCAE-4DA0-9534-1F3D085AFBD9*
G04*
G04*
G04 #@! TF.FilePolarity,Positive*
G04*
G01*
G75*
%ADD25C,5.5000*%
%ADD26C,1.5080*%
%ADD27R,1.5080X1.5080*%
%ADD28C,1.2000*%
%ADD29R,1.5080X1.5080*%
%ADD30R,1.5750X1.5750*%
%ADD31C,1.5750*%
D25*
X660000Y30000D02*
D03*
Y390000D02*
D03*
X30000Y30000D02*
D03*
Y390000D02*
D03*
D26*
X41000Y131000D02*
D03*
Y156000D02*
D03*
Y181000D02*
D03*
X388500Y246000D02*
D03*
Y221000D02*
D03*
Y271000D02*
D03*
X212000Y24000D02*
D03*
X237000D02*
D03*
X162000D02*
D03*
X137000D02*
D03*
X187000D02*
D03*
X337000D02*
D03*
X312000D02*
D03*
X387000D02*
D03*
X362000D02*
D03*
X262000D02*
D03*
X287000Y49000D02*
D03*
Y24000D02*
D03*
X187000Y49000D02*
D03*
X162000D02*
D03*
X137000Y49000D02*
D03*
X212000D02*
D03*
X362000D02*
D03*
X337000D02*
D03*
X387000D02*
D03*
X262000D02*
D03*
X237000D02*
D03*
X312000D02*
D03*
X487000Y24000D02*
D03*
X437000D02*
D03*
X412000D02*
D03*
X462000D02*
D03*
X587000D02*
D03*
X562000D02*
D03*
X612000D02*
D03*
X512000D02*
D03*
X537000Y24000D02*
D03*
X612000Y49000D02*
D03*
X437000D02*
D03*
X487000Y49000D02*
D03*
X462000D02*
D03*
X412000D02*
D03*
X562000Y49000D02*
D03*
X537000D02*
D03*
X512000Y49000D02*
D03*
X587000D02*
D03*
X368750Y116250D02*
D03*
X293750Y116250D02*
D03*
X268750D02*
D03*
X343750D02*
D03*
X318750D02*
D03*
X243750Y116250D02*
D03*
D27*
X41000Y106000D02*
D03*
X388500Y196000D02*
D03*
D28*
X406000Y382250D02*
D03*
X426000D02*
D03*
X386000D02*
D03*
X466000D02*
D03*
X446000D02*
D03*
X366000D02*
D03*
D29*
X218750Y116250D02*
D03*
D30*
X130000Y392000D02*
D03*
D31*
X105000D02*
D03*
M02*
